<?xml version="1.0" encoding="UTF-8" standalone="no"?>
<svg
   width="586.12097mm"
   height="199.90691mm"
   viewBox="0 0 586.12097 199.90691"
   version="1.1"
   id="svg8"
   xmlns="http://www.w3.org/2000/svg"
   xmlns:svg="http://www.w3.org/2000/svg"
   xmlns:rdf="http://www.w3.org/1999/02/22-rdf-syntax-ns#"
   xmlns:cc="http://creativecommons.org/ns#"
   xmlns:dc="http://purl.org/dc/elements/1.1/">
  <defs
     id="defs2" />
  <metadata
     id="metadata5">
    <rdf:RDF>
      <cc:Work
         rdf:about="">
        <dc:format>image/svg+xml</dc:format>
        <dc:type
           rdf:resource="http://purl.org/dc/dcmitype/StillImage" />
      </cc:Work>
    </rdf:RDF>
  </metadata>
  <g
     transform="translate(-25.769247,274.09113)"
     id="layer1">
    <rect
       style="fill:#ffe0ee;fill-opacity:1;stroke-width:4.28731"
       id="rect883"
       width="587.20996"
       height="199.90691"
       x="25.769247"
       y="-274.09113" />
    <path
       id="path871"
       style="fill:#ff1999;fill-opacity:1;stroke:none;stroke-width:0.25551px;stroke-linecap:butt;stroke-linejoin:miter;stroke-opacity:1"
       d="m 185.35991,-170.26189 c 14.99116,0.64148 12.92677,17.69491 2.96101,19.20702 16.93678,2.36528 9.15018,21.4697 1.70316,21.06358 10.64644,11.65275 0.0968,26.02163 -12.70168,19.21259 2.90666,10.61599 -13.74135,16.18912 -17.34781,5.58646 -5.9185,17.745197 -21.96429,11.192101 -21.85763,2.91495 -5.40706,9.443351 -17.81147,3.55048 -17.76023,-3.82699 -9.48579,5.41893 -21.331274,-6.09625 -14.69728,-14.86733 -12.918854,-0.31192 -12.613544,-16.263 -2.94088,-18.52235 2.24638,0.91287 -0.91387,4.11833 -0.0264,-0.16724 -13.374104,-4.32888 -11.146094,-18.82497 -1.69642,-18.68607 -4.509104,-6.34808 2.8269,-15.13412 10.7949,-14.23361" />
    <path
       id="path862"
       style="fill:#ffb7df;fill-opacity:1;stroke:none;stroke-width:0.264583px;stroke-linecap:butt;stroke-linejoin:miter;stroke-opacity:1"
       d="m 178.53863,-172.55015 c 3.8703,0.44388 3.85972,1.63203 3.54074,5.598 -23.42417,29.83859 -83.659374,13.46178 -69.82428,-1.96893" />
    <path
       id="path833"
       style="fill:#ffffff;fill-opacity:1;stroke:none;stroke-width:0.264583px;stroke-linecap:butt;stroke-linejoin:miter;stroke-opacity:1"
       d="m 178.28692,-170.23322 c -0.76738,-22.83821 -14.50124,-41.68298 -32.4204,-41.73683 -25.37628,-0.0763 -37.69589,33.19828 -31.55198,49.33476 17.6728,13.96638 58.79279,5.47239 63.97238,-7.59793 z" />
    <circle
       style="fill:#676767;fill-opacity:1;stroke:none;stroke-width:3.43958;stroke-opacity:1"
       id="path885"
       cx="137.53116"
       cy="-184.40746"
       r="2.5224922" />
    <circle
       style="fill:#676767;fill-opacity:1;stroke:none;stroke-width:3.43958;stroke-opacity:1"
       id="path887"
       cx="162.88885"
       cy="-183.4781"
       r="2.9207804" />
    <path
       id="path889"
       style="fill:none;stroke:#676767;stroke-width:0.948181;stroke-linecap:round;stroke-linejoin:round;stroke-miterlimit:4;stroke-dasharray:none;stroke-opacity:1"
       d="m 145.98028,-182.57442 c -0.25275,1.95289 0.36798,3.81019 2.1354,4.17244 2.62743,0.53852 3.65985,-1.30863 4.57608,-3.44058" />
    <g
       aria-label="lychee"
       id="text850"
       style="font-size:108.204px;line-height:1.25;font-family:'Fresh Lychee';-inkscape-font-specification:'Fresh Lychee, Normal';fill:#e7008e;stroke-width:2.7051">
      <path
         d="m 240.25481,-129.1122 c -5.19379,-5.62661 -1.51485,-45.01287 -1.19024,-53.77739 0,-1.19024 -0.10821,-2.27228 -0.21641,-3.46253 -0.86563,-5.19379 -7.46608,-6.60044 -10.06297,-1.51485 -6.16763,12.11884 -13.3091,53.01996 -1.29845,64.16497 2.92151,2.48869 7.24967,3.46253 10.7122,2.16408 3.13791,-1.40665 4.76097,-5.4102 2.05587,-7.57428 z"
         id="path5637" />
      <path
         d="m 246.45794,-142.96231 c 2.92151,11.57782 15.90599,15.14856 23.04746,3.89534 1.51485,-2.27228 2.8133,-4.86918 4.00354,-7.24967 0.21641,4.43637 0.10821,12.44346 -2.05587,18.17827 -1.51486,4.00355 -5.73481,9.08914 -7.89889,2.4887 -0.54102,-1.73127 -1.73127,-2.81331 -3.46253,-3.02972 -2.05588,-0.1082 -3.46253,0.64923 -4.32816,2.05588 -1.40665,2.8133 -0.75743,6.05942 0.1082,9.08914 3.78714,12.76807 21.42439,11.68603 27.051,-0.97384 4.65278,-10.60399 1.08204,-28.24124 -0.86563,-37.43858 -1.73126,-7.35788 -7.89889,-6.70865 -9.95477,-0.86564 -1.51485,3.57074 -3.13791,6.60045 -4.43636,8.87273 -12.33526,21.5326 -8.0071,-8.87273 -1.94767,-17.31264 2.9215,-4.32816 -3.13792,-8.33171 -9.41375,-5.08559 -8.1153,3.89535 -12.55167,17.09624 -9.84657,27.37562 z"
         id="path5639" />
      <path
         d="m 310.31014,-164.2785 c 1.40666,-3.02971 5.51841,-8.22351 5.84302,-5.19379 0.75743,6.81685 8.65632,7.03326 9.30554,-2.27229 0.21641,-2.8133 -0.2164,-4.97738 -1.29844,-6.70865 -2.92151,-4.65277 -8.54812,-5.73481 -13.85012,-4.54456 -7.79068,1.73126 -13.41729,8.87272 -16.2306,16.447 -3.78714,9.95477 -3.35432,22.18182 1.40665,31.37916 6.81686,12.98448 21.4244,12.33526 26.29358,-2.59689 1.08204,-3.35433 1.73126,-6.81685 2.05587,-9.73836 0.43282,-5.302 -5.08558,-6.92506 -6.38403,-1.08204 -1.94767,20.55876 -8.76453,14.28293 -10.06297,2.27228 -0.64923,-6.70865 -0.43282,-10.8204 2.9215,-17.96186 z"
         id="path5641" />
      <path
         d="m 349.39207,-129.97783 c 0.86564,-2.16408 3.24612,-22.50644 8.22351,-19.26032 5.19379,3.46253 2.59689,14.28293 4.54457,19.69313 2.27228,6.16763 10.8204,5.302 9.84656,-0.43281 -1.29845,-7.46608 -0.54102,-15.25677 -3.78714,-22.50644 -3.57073,-7.89889 -12.55166,-8.43991 -17.63725,-2.27228 -4.11175,4.97738 -4.21996,5.302 -4.32816,0.97384 0,-9.84657 0.21641,-19.47672 1.08204,-29.86431 0,-9.08914 -8.0071,-9.30554 -11.46963,-1.51485 -3.24612,7.46607 -7.46607,35.3827 -2.9215,51.3969 1.29844,4.32816 3.57073,10.38758 9.30554,9.73836 2.92151,-0.21641 5.84302,-2.38049 7.14146,-5.95122 z"
         id="path5643" />
      <path
         d="m 391.5426,-144.47717 c 6.92505,2.38049 14.49933,-3.78714 15.68958,-10.8204 3.89534,-20.77517 -20.66697,-19.36852 -26.9428,-2.48869 -3.13792,8.54811 -2.5969,18.17827 1.29845,24.99512 6.70865,11.79424 18.61109,9.84657 25.64435,-2.7051 2.48869,-4.32816 -1.08204,-10.38758 -4.76098,-3.35432 -4.54457,7.89889 -13.95831,11.03681 -10.9286,-5.62661 z m 1.08204,-6.38404 c 0.54102,-5.4102 4.76097,-14.06652 7.89889,-13.20088 4.32816,4.65277 -0.21641,12.55166 -7.89889,13.20088 z m 31.92018,6.16763 c 8.65632,0.43282 13.6337,-8.43991 11.79423,-16.77162 -0.86563,-3.89534 -3.57073,-8.43991 -8.87272,-8.33171 -4.97739,0.32462 -9.41375,4.00355 -11.46963,8.87273 -3.46253,7.79069 -4.65277,20.88337 -0.32461,28.78227 4.86918,9.08913 16.98803,9.08913 20.55876,-2.27229 0.75743,-2.48869 1.19024,-5.30199 1.40665,-7.79069 0.64923,-4.11175 -4.54457,-4.32816 -5.4102,-0.75742 -0.75743,2.9215 -1.19024,4.65277 -1.94767,7.24966 -2.8133,6.81686 -6.81685,-1.94767 -5.73481,-8.98093 z m 0.54102,-6.70865 c 1.08204,-4.11175 2.59689,-7.79068 4.65277,-10.9286 3.67894,2.92151 1.94767,10.9286 -4.65277,10.9286 z"
         id="path5645" />
    </g>
    <g
       aria-label="Introducing the glorious"
       id="text854"
       style="font-size:34.4503px;line-height:1.25;font-family:Authentic;-inkscape-font-specification:'Authentic, Normal';fill:#a40b73;stroke-width:0.861259">
      <path
         d="m 227.44083,-206.70145 h -0.0336 l -0.0336,0.0168 q -0.42054,0 -0.80743,-0.50464 -0.16822,-0.21868 -0.16822,-0.37007 0.0336,-0.13458 0.16822,-0.16822 0,0 0.18503,-0.0336 2.65779,-0.38689 4.77729,-0.63922 0.471,-3.78482 7.065,-19.56332 0.63922,-1.53076 1.22797,-2.91011 -0.62239,0.0841 -1.27843,0.16821 -0.65604,0.0841 -1.16068,0.16822 -0.48782,0.0673 -0.89154,0.13457 -0.40371,0.0505 -0.62239,0.0841 l -0.21868,0.0336 h -0.0673 q -0.42054,0 -0.82425,-0.50465 -0.1514,-0.21867 -0.16822,-0.37007 0.0336,-0.13457 0.16822,-0.16821 0,0 0.13457,-0.0168 3.04468,-0.471 5.43332,-0.74015 0.21868,-0.45418 0.43736,-0.471 0.2355,0.0168 0.60557,0.37007 1.85036,-0.18503 2.89329,-0.18503 0.5551,0 0.77378,0.0336 0.84107,0.10093 1.22797,0.68968 0.11775,0.18504 0.11775,0.30279 -0.0336,0.15139 -0.1514,0.18503 h -0.0336 q -0.0505,0 -0.18503,-0.0336 -0.52147,-0.13457 -1.02611,-0.13457 h -0.0505 q -1.39617,0.0336 -3.51568,0.26914 -6.07253,14.18047 -8.02382,20.57262 -0.35325,1.14385 -0.52146,1.91764 2.00175,-0.21868 3.19607,-0.21868 0.42053,0 0.85789,0.0673 0.72332,0.11775 1.11022,0.7906 0.11775,0.18504 0.11775,0.30279 -0.0168,0.0673 -0.0505,0.0841 -0.0336,-0.0168 -0.0673,-0.0336 -0.31961,-0.15139 -1.29525,-0.15139 -1.11022,0 -4.03715,0.31961 -0.0336,0.40371 -0.26914,0.42053 -0.26914,-0.0168 -0.60557,-0.3196 -0.63922,0.0841 -1.3289,0.16821 -0.68968,0.10093 -1.21114,0.16822 -0.52146,0.0673 -0.95882,0.13457 -0.42054,0.0673 -0.65604,0.10093 z"
         id="path5765" />
      <path
         d="m 242.24369,-220.47821 q 0.0673,-0.0841 0.18504,-0.10093 0.37007,0 0.79061,0.45418 0.20186,0.2355 0.21868,0.40372 0,0.0505 -0.0336,0.10093 -0.0168,0.0336 -1.74943,3.43157 3.24654,-3.14561 4.40722,-3.63343 0.13457,-0.0505 0.2355,-0.0841 0.21868,-0.0505 0.38689,-0.0505 0.79061,0.0168 1.3289,0.65603 0.43735,0.52147 0.43735,1.74943 0,0.3869 -0.18503,2.08586 -0.0168,0.18504 -0.0168,0.26914 0,0.10093 0.0336,0.13458 0.0336,0.0168 0.0505,0.0168 0.58875,0 4.1549,-2.67461 0.471,-0.35325 0.60557,-0.471 0.0505,-0.0336 0.11775,-0.0336 0.30279,0 0.63921,0.53828 0.16822,0.28597 0.16822,0.48782 -0.0168,0.11775 -0.0841,0.20186 -1.68214,1.37936 -2.355,1.81672 -1.56439,1.00928 -2.60732,1.00928 -0.60557,-0.0168 -1.05975,-0.33643 -0.79061,-0.63921 -0.79061,-1.98493 0,-0.38689 0.0673,-1.16068 0.0673,-0.72332 0.0673,-1.04292 v -0.18504 q -0.99246,0.25232 -3.91939,3.07832 -2.28772,2.20361 -2.64097,2.5064 -0.57193,0.471 -0.77378,0.48782 -0.95883,-0.0841 -1.00929,-0.90836 0,-0.35325 3.33064,-6.76222 z"
         id="path5767" />
      <path
         d="m 257.70259,-232.11864 q 0.10093,-0.26914 0.60558,0.0168 0.0673,0.0336 0.10092,0.0505 0.471,0.3196 0.48783,0.65603 -0.0168,0.0505 -0.0168,0.0841 0,0 -0.16821,0.48782 -0.97564,2.80918 -1.78307,5.26511 9.62186,-0.95882 13.38986,0.75696 0.48782,0.21868 0.63921,0.63922 0.0168,0.0505 0.0337,0.0841 0.0505,0.25232 -0.21868,0.25232 -0.13457,-0.0168 -0.28597,-0.0841 -3.68389,-1.68214 -13.92814,-0.48782 -0.3869,1.19432 -1.27843,3.81846 -3.14561,9.42001 -3.90258,12.6329 -0.471,2.0354 -0.40371,2.87647 0.0168,0.28596 -0.35325,0.20185 -0.11775,-0.0336 -0.21868,-0.0841 -0.48782,-0.2355 -0.62239,-0.63922 -0.0168,-0.0673 -0.0168,-0.10093 -0.1514,-1.884 2.69143,-10.66478 0.43735,-1.3289 1.32889,-4.02033 0.87471,-2.62414 1.26161,-3.83528 -1.37936,0.18503 -2.80918,0.42053 -1.42982,0.21868 -2.48958,0.42054 -1.07657,0.18503 -1.93446,0.35325 -0.85789,0.16821 -1.32889,0.26914 l -0.45418,0.0841 q -0.33643,0.0841 -0.77379,-0.35325 -0.0505,-0.0505 -0.0841,-0.0841 -0.0336,-0.0505 -0.0673,-0.0841 -0.0505,-0.0505 -0.0673,-0.10093 -0.0336,-0.0505 -0.0505,-0.0841 -0.0168,-0.0336 -0.0168,-0.0673 -0.0168,-0.0505 -0.0168,-0.0841 0,-0.0336 0.0168,-0.0505 0,-0.0336 0.0336,-0.0505 0.0168,-0.0336 0.0505,-0.0505 0.0168,-0.0168 0.0505,-0.0168 0,0 0.16821,-0.0336 5.23147,-1.07658 10.16015,-1.66533 0.55511,-1.69896 1.12704,-3.3811 0.57192,-1.69897 0.85789,-2.52322 z"
         id="path5769" />
      <path
         d="m 266.24788,-218.10638 q 0.2355,-0.21868 0.67286,0.2355 0.43736,0.45417 0.26914,0.7065 -0.0336,0.0168 -0.0336,0.0336 -0.13457,0.11775 -2.25407,2.45593 -3.70072,4.05396 -5.11372,4.44086 -0.3196,0.0673 -0.53828,0 -0.55511,-0.20186 -0.90836,-0.7065 -0.63922,-0.95882 1.42982,-4.72683 0.15139,-0.28596 0.471,-0.84107 0.42054,-0.75696 0.55511,-1.02611 -2.06904,0.6224 -3.19607,-0.15139 -1.05975,-0.72332 -0.80743,-2.08586 0.18503,-1.05975 0.95882,-1.63168 0.25232,-0.18503 0.50464,-0.25232 0.68968,-0.20185 1.3289,0.471 0.35325,0.3869 0.45417,0.80743 0.13458,0.75697 -0.40371,1.884 0.13457,-0.0336 0.48782,-0.16821 0.84107,-0.30279 1.07657,-0.30279 0.79061,0.0673 1.11022,0.82425 0.18503,0.50465 -1.1775,3.02786 -1.39618,2.60732 -1.6485,3.22972 -0.13457,0.37007 -0.18504,0.60557 1.12704,-0.52147 4.44086,-4.12125 2.16996,-2.37183 2.50639,-2.70825 z m -8.34343,-0.2355 q 0.79061,-1.21115 0.942,-2.08586 -0.38689,0.31961 -0.67286,0.942 -0.18503,0.37007 -0.28596,0.90836 -0.0168,0.18503 0.0168,0.2355 z"
         id="path5771" />
      <path
         d="m 268.11506,-218.79606 q 0.3869,0.33643 0.40372,0.52146 0,0.11775 -0.31961,0.26914 -0.18504,0.0841 -0.25232,0.13458 0.26914,0.89153 1.54757,1.1775 0.67286,-1.21115 0.67286,-2.1195 0,-0.35325 -0.11775,-0.55511 -0.0505,-0.0505 -0.20186,-0.0505 -0.75696,0 -1.413,0.35325 -0.21868,0.13458 -0.31961,0.26915 z m -1.39618,0.11775 q 0,-0.0336 -0.0168,-0.10093 0,-0.0505 0,-0.0841 0,-1.00928 1.11022,-1.39618 0.45418,-0.16821 0.97564,-0.16821 1.21114,0.0168 1.86718,0.65603 0.68968,0.67286 0.68968,1.74943 0,0.63922 -0.28597,1.31207 1.91765,-0.37007 3.34747,-1.53075 0.0673,-0.0505 0.15139,-0.0505 0.35325,0 0.7065,0.471 0.16822,0.21868 0.18504,0.38689 -0.0168,0.10093 -0.0841,0.1514 -2.08586,1.68214 -4.37357,1.68214 -0.31961,0 -0.471,-0.0168 -1.51393,2.45593 -3.54933,2.45593 -0.87471,0 -1.39617,-0.37007 -0.0337,-0.0505 -0.0505,-0.0673 -0.85789,-0.62239 -0.85789,-1.59804 0,-1.32889 1.37936,-2.84282 0.33642,-0.37007 0.67285,-0.63921 z m 0.6224,1.37935 q -1.16068,1.24479 -1.44665,2.37183 -0.0336,0.18503 -0.0505,0.33643 -0.0168,0.30278 0,0.38689 0.2355,0.10093 0.48782,0.10093 1.04293,0 2.27089,-1.36254 0.2355,-0.26914 0.43736,-0.53828 -1.04293,-0.48783 -1.69896,-1.29526 z"
         id="path5773" />
      <path
         d="m 280.63021,-219.53621 q -0.0168,-0.0168 -0.0673,-0.0505 -0.0336,-0.0168 -0.0505,-0.0336 -0.0673,0.13457 -0.26914,0.50464 -1.91765,3.54932 -3.24654,4.69318 -0.77379,0.65604 -1.413,0.65604 -0.43736,-0.0168 -0.77379,-0.25233 -0.942,-0.75696 -0.95882,-2.28771 0,-0.79061 0.31961,-1.66532 0.79061,-2.08586 2.355,-2.87647 0.74014,-0.37007 1.54757,-0.37007 0.74014,0 1.51393,0.31961 2.47275,-4.45768 5.14736,-10.42929 l 0.0336,-0.0505 q 0.0673,-0.10092 0.20186,-0.11775 0.37007,0 0.79061,0.40372 0.26914,0.26914 0.20185,0.45418 -2.5905,6.45943 -4.89503,13.45714 -2.35501,7.18276 -2.35501,9.3359 0,0.10093 0.0337,0.25232 0.0168,0.13457 0.0168,0.20186 -0.0336,0.15139 -0.20186,0.16821 -0.38689,0 -0.79061,-0.40371 -0.18503,-0.20186 -0.21867,-0.38689 -0.0337,-0.16822 -0.0337,-0.53829 0,-2.27089 2.72508,-9.92465 0.18503,-0.50464 0.38689,-1.05975 z m -1.46347,-0.60557 q -0.20185,-0.0336 -0.30278,-0.0336 -1.46347,0 -2.72507,1.69896 -1.04293,1.413 -1.19433,2.80918 -0.0168,0.16822 -0.0168,0.30279 0,0.35325 0.10093,0.60557 1.27843,-0.38689 4.13807,-5.38286 z"
         id="path5775" />
      <path
         d="m 286.33268,-220.79781 q 0.0673,-0.0841 0.18503,-0.0841 0.37007,0 0.77379,0.43736 0.20186,0.25232 0.21868,0.42053 0,0.0673 -0.0336,0.11775 -1.34571,1.90082 -1.90082,3.58297 -0.2355,0.7065 -0.2355,1.21114 0,0.11775 0.0336,0.30279 1.36254,-0.471 4.07079,-4.0035 0.57193,-0.74015 0.99247,-1.34572 0.13457,-0.16821 0.3196,-0.18504 0.40372,0 0.74015,0.50465 0.15139,0.2355 0.15139,0.38689 -0.0168,0.0841 -0.0505,0.13457 -0.45418,1.37936 -0.70651,2.99422 -0.0841,0.53828 -0.0841,0.89153 0.0168,0.48783 0.16821,0.58875 0.13457,0.0841 0.3869,0.0841 1.14385,0 3.65025,-1.85036 1.32889,-0.99246 1.79989,-1.56439 0.10093,-0.0841 0.16821,-0.0841 0.35325,0 0.72333,0.45418 0.16821,0.2355 0.18503,0.38689 -0.0168,0.0841 -0.0505,0.13458 -0.99247,1.21114 -2.65779,2.28771 -1.83354,1.1775 -3.17925,1.1775 -0.7065,-0.0168 -1.21114,-0.33643 -1.14386,-0.77378 -1.14386,-2.355 v -0.2355 q -2.08586,2.5064 -3.297,2.96057 -0.0336,0 -0.0673,0.0168 -0.15139,0.0505 -0.31961,0.0505 -0.67285,-0.0168 -1.2616,-0.65604 -0.50465,-0.58875 -0.50465,-1.44664 0,-1.93446 2.13633,-4.97914 z"
         id="path5777" />
      <path
         d="m 301.74111,-218.19049 q -0.0841,0.16821 -0.2355,0.18503 -0.37007,0 -0.77379,-0.50464 -0.2355,-0.30278 -0.18503,-0.48782 l 0.2355,-0.68968 q -0.95882,0.18504 -2.23725,1.59804 -1.44665,1.58121 -1.69897,2.96057 -0.0505,0.2355 -0.0505,0.43736 0.0168,0.42053 0.20186,0.72332 0.21867,0.0505 0.42053,0.0505 1.63168,0 5.66883,-2.65778 0.35325,-0.21868 1.0261,-0.67286 1.0934,-0.74014 1.49711,-0.97564 0.0841,-0.0505 0.13457,-0.0505 0.3869,0 0.80743,0.48782 0.16822,0.2355 0.18504,0.3869 -0.0168,0.11775 -0.0841,0.15139 -0.43736,0.26914 -1.56439,1.02611 -3.22972,2.15314 -4.82776,2.826 -1.2616,0.52146 -2.15314,0.52146 -0.16821,0 -0.42054,-0.0336 -1.09339,-0.18504 -1.69896,-1.1775 -0.28596,-0.471 -0.35325,-0.99247 -0.0168,-0.10092 -0.0168,-0.25232 0,-1.413 1.32889,-3.14561 1.27843,-1.63167 2.69143,-2.15314 0.45418,-0.15139 0.84107,-0.15139 0.90836,0.0168 1.42982,0.80743 0.16822,0.26914 0.16822,0.57193 0,0.25232 -0.28597,1.07657 -0.0336,0.0841 -0.0505,0.13457 z"
         id="path5779" />
      <path
         d="m 306.70343,-220.52867 q 0.0673,-0.10093 0.18504,-0.11775 0.37007,0 0.79061,0.45418 0.20185,0.2355 0.21867,0.40371 0,0.0505 -0.0336,0.10093 -1.46346,3.09514 -1.61486,4.81093 -0.0168,0.15139 -0.0168,0.28597 0,0.2355 0.0673,0.48782 h 0.0336 q 1.39618,0 4.13807,-2.80918 0.7065,-0.74015 1.21115,-1.34572 0.0505,-0.0673 0.13457,-0.0673 0.28596,0 0.60557,0.50464 0.16821,0.26914 0.16821,0.471 -0.0168,0.0841 -0.0673,0.18504 -3.39793,4.03714 -5.46697,4.10443 -0.18503,0 -0.471,-0.0673 -0.80743,-0.2355 -1.24478,-0.95882 -0.28597,-0.471 -0.28597,-1.21114 0,-1.78308 1.6485,-5.23147 z m 1.86718,-0.75697 q -0.0673,0.0841 -0.18503,0.10093 -0.37008,0 -0.77379,-0.43735 -0.20186,-0.25233 -0.21868,-0.42054 0,-0.0505 0.0336,-0.11775 l 1.39618,-2.23725 q 0.0673,-0.0841 0.20186,-0.0841 0.38689,0 0.79061,0.45418 0.18503,0.21868 0.20185,0.38689 0,0.0505 -0.0336,0.11775 z"
         id="path5781" />
      <path
         d="m 312.69186,-220.47821 q 0.0673,-0.0841 0.18504,-0.10093 0.37007,0 0.7906,0.45418 0.20186,0.2355 0.21868,0.40372 0,0.0505 -0.0336,0.10093 -0.0168,0.0336 -1.74943,3.43157 3.24654,-3.14561 4.40722,-3.63343 0.13457,-0.0505 0.2355,-0.0841 0.21867,-0.0505 0.38689,-0.0505 0.79061,0.0168 1.32889,0.65603 0.43736,0.52147 0.43736,1.74943 0,0.3869 -0.18504,2.08586 -0.0168,0.18504 -0.0168,0.26914 0,0.10093 0.0336,0.13458 0.0336,0.0168 0.0505,0.0168 0.58875,0 4.15489,-2.67461 0.471,-0.35325 0.60558,-0.471 0.0505,-0.0336 0.11775,-0.0336 0.30278,0 0.63921,0.53828 0.16821,0.28597 0.16821,0.48782 -0.0168,0.11775 -0.0841,0.20186 -1.68215,1.37936 -2.355,1.81672 -1.5644,1.00928 -2.60733,1.00928 -0.60557,-0.0168 -1.05975,-0.33643 -0.7906,-0.63921 -0.7906,-1.98493 0,-0.38689 0.0673,-1.16068 0.0673,-0.72332 0.0673,-1.04292 v -0.18504 q -0.99247,0.25232 -3.9194,3.07832 -2.28771,2.20361 -2.64096,2.5064 -0.57193,0.471 -0.77379,0.48782 -0.95882,-0.0841 -1.00928,-0.90836 0,-0.35325 3.33064,-6.76222 z"
         id="path5783" />
      <path
         d="m 328.18441,-220.37728 q 0.26914,0.0673 0.57193,0.30279 0.2355,-0.31961 0.53828,-0.79061 0.33643,-0.50464 1.04293,0.15139 0.20186,0.20186 0.31961,0.37007 0.42053,0.65604 -0.53829,4.18854 -0.0673,0.2355 -0.13457,0.45418 1.54757,-0.95882 3.12879,-1.884 0.72332,-0.42054 1.02611,-0.60557 0.25232,-0.15139 0.74014,0.21868 0.0505,0.0505 0.0841,0.0841 0.42053,0.40372 0.28596,0.63922 -0.0336,0.0336 -0.0505,0.0505 -0.37008,0.2355 -1.02611,0.60557 -3.02786,1.78308 -4.82775,2.96058 -1.98493,5.98843 -4.239,9.52093 -0.75697,1.21114 -1.48029,1.96811 -1.85036,1.91764 -3.5325,0.37007 -4.87822,-4.239 7.50236,-12.3974 0.18503,-0.13457 0.60557,-0.40371 0.82425,-2.45593 1.1775,-3.90258 -2.27089,3.02786 -3.78482,3.54933 -1.49711,0.50464 -2.13633,-0.74015 -0.13457,-0.30278 -0.21867,-0.65603 -0.37008,-1.61486 1.0261,-2.87647 1.22797,-1.11021 2.94375,-1.22796 0.52147,-0.0168 0.97565,0.0505 z m 0.0841,0.97565 q -1.36254,-0.0673 -2.60733,0.89153 -1.27843,1.00929 -1.27843,2.2709 0,0.2355 0.0505,0.45417 0.11775,0.471 3.16243,-2.85964 0.57193,-0.63921 0.67286,-0.75696 z m -5.75294,16.33361 q 2.16997,-2.28772 4.64272,-8.61258 0.13457,-0.33642 0.25232,-0.65603 -5.73611,4.03714 -7.16593,6.93043 -0.97564,2.01857 0.37007,3.19607 l 0.0673,0.0673 q 0.52146,0.25232 1.42982,-0.53829 0.20186,-0.18503 0.40371,-0.38689 z"
         id="path5785" />
      <path
         d="m 358.29477,-218.15685 q 0.28597,-0.18503 0.80743,0.28597 0.48783,0.43735 0.28597,0.65603 -0.0168,0.0336 -0.0336,0.0336 -0.16822,0.10093 -0.57193,0.37008 -2.32136,1.56439 -3.58297,1.93446 -1.63168,0.48782 -2.52321,-0.40371 -0.77379,-0.77379 -0.87472,-2.67461 -0.0168,-0.11775 -0.0336,-0.63922 -1.19432,0.74015 -3.22972,3.6839 -1.73261,2.52321 -1.93446,2.77554 -0.21868,0.28596 -0.40372,0.48782 -0.42053,0.30278 -0.97564,-0.18504 -0.43736,-0.42053 -0.42054,-0.87471 0.10093,-1.6485 4.74365,-14.01226 -1.34572,0.77379 -3.11197,1.46347 -6.07253,17.35972 -5.82021,20.47168 0.0168,0.28597 -0.37007,0.18504 -0.10093,-0.0336 -0.20186,-0.0841 -0.48782,-0.2355 -0.6224,-0.63921 -0.0168,-0.0673 -0.0168,-0.10093 -0.2355,-3.09515 5.34922,-19.2269 -4.42404,1.48028 -9.31908,2.23725 -0.21867,0.0336 -0.25232,0.0336 -0.35325,0.0505 -0.7906,-0.38689 -0.0337,-0.0505 -0.0673,-0.0841 -0.0505,-0.0673 -0.0841,-0.13457 -0.0505,-0.0673 -0.0673,-0.13457 -0.0337,-0.0673 -0.0337,-0.11775 0,-0.0505 0.0168,-0.0841 0.0168,-0.0336 0.0673,-0.0673 0.0336,-0.0337 0.0841,-0.0337 0.38689,0 2.99421,-0.53828 4.59226,-0.92518 7.99019,-2.23725 0.50464,-1.44665 1.00928,-2.85965 0.52147,-1.42982 0.77379,-2.10268 l 0.25232,-0.68968 q 0.10093,-0.26914 0.58875,0.0168 0.0673,0.0336 0.11775,0.0673 0.471,0.31961 0.48782,0.65604 -0.0168,0.0505 -0.0168,0.0841 -0.0168,-0.0168 -1.48029,4.10443 2.10268,-0.97564 3.39793,-2.1195 0.21868,-0.57193 0.3869,-1.00928 0.16821,-0.45418 0.28596,-0.79061 0.13457,-0.33643 0.20186,-0.52146 l 0.0673,-0.16822 q 0.11775,-0.30278 0.68968,0.0673 0.18504,0.13457 0.31961,0.26914 0.11775,0.0505 0.30279,0.16821 0.52146,0.3869 0.48782,0.7065 -0.0168,0.0168 -0.0168,0.0336 -0.40372,1.05975 -1.5644,2.1195 -3.41475,9.01629 -4.89504,13.59172 0.20186,-0.26915 0.65604,-0.942 2.01857,-2.91011 2.96057,-3.73436 0.1514,-0.13457 0.28597,-0.2355 0.58875,-0.42054 1.16068,-0.10093 1.00928,0.57193 1.19432,1.81671 0.0336,0.21868 0.0505,0.67286 0.0841,0.97565 0.26915,1.39618 1.14385,0.0673 5.0296,-2.45593 z"
         id="path5787" />
      <path
         d="m 358.56392,-215.49906 q -0.26914,0.13457 -0.26914,0.75696 0.0168,0.58875 0.33643,0.7065 0.3196,0.10093 0.68967,0.10093 2.11951,0 5.95479,-2.80918 0.99247,-0.72332 1.74943,-1.39618 0.0673,-0.0505 0.13457,-0.0505 0.33643,0 0.68968,0.50464 0.18504,0.26914 0.18504,0.45418 -0.0168,0.10093 -0.0673,0.16821 -0.40371,0.40372 -1.78307,1.39618 -3.81847,2.7419 -6.15665,2.75872 -0.30278,0 -0.43735,-0.0168 -2.13632,-0.28597 -2.37182,-1.95129 -0.0337,-0.18503 -0.0337,-0.37007 0,-1.53075 1.31207,-3.24654 1.19433,-1.56439 2.48958,-1.98493 0.28596,-0.0841 0.53828,-0.10093 h 0.0673 q 0.79061,0 1.34571,0.68968 0.35325,0.45418 0.35325,0.92518 -0.0168,0.33643 -0.16821,0.6224 -0.16822,0.30278 -0.52147,0.62239 -0.33642,0.31961 -0.75696,0.58875 -0.40371,0.26914 -0.87471,0.52146 -0.45418,0.25233 -0.87472,0.45418 -0.42054,0.20186 -0.77379,0.35325 -0.33642,0.1514 -0.53828,0.21868 z m 0.942,-1.86718 q 2.27089,-1.16068 2.55686,-2.1195 -0.99247,0.30278 -2.22043,1.71578 -0.18504,0.20186 -0.33643,0.40372 z"
         id="path5789" />
      <path
         d="m 380.12899,-220.37728 q 0.26914,0.0673 0.57193,0.30279 0.2355,-0.31961 0.53828,-0.79061 0.33643,-0.50464 1.04293,0.15139 0.20186,0.20186 0.31961,0.37007 0.42053,0.65604 -0.53829,4.18854 -0.0673,0.2355 -0.13457,0.45418 1.54757,-0.95882 3.12879,-1.884 0.72332,-0.42054 1.02611,-0.60557 0.25232,-0.15139 0.74014,0.21868 0.0505,0.0505 0.0841,0.0841 0.42053,0.40372 0.28596,0.63922 -0.0336,0.0336 -0.0505,0.0505 -0.37008,0.2355 -1.02611,0.60557 -3.02786,1.78308 -4.82775,2.96058 -1.98493,5.98843 -4.239,9.52093 -0.75697,1.21114 -1.48029,1.96811 -1.85036,1.91764 -3.5325,0.37007 -4.87822,-4.239 7.50236,-12.3974 0.18503,-0.13457 0.60557,-0.40371 0.82425,-2.45593 1.1775,-3.90258 -2.27089,3.02786 -3.78482,3.54933 -1.49711,0.50464 -2.13632,-0.74015 -0.13458,-0.30278 -0.21868,-0.65603 -0.37008,-1.61486 1.0261,-2.87647 1.22797,-1.11021 2.94375,-1.22796 0.52147,-0.0168 0.97565,0.0505 z m 0.0841,0.97565 q -1.36254,-0.0673 -2.60733,0.89153 -1.27843,1.00929 -1.27843,2.2709 0,0.2355 0.0505,0.45417 0.11775,0.471 3.16243,-2.85964 0.57193,-0.63921 0.67286,-0.75696 z m -5.75294,16.33361 q 2.16997,-2.28772 4.64272,-8.61258 0.13457,-0.33642 0.25232,-0.65603 -5.73611,4.03714 -7.16593,6.93043 -0.97564,2.01857 0.37007,3.19607 l 0.0673,0.0673 q 0.52146,0.25232 1.42982,-0.53829 0.20186,-0.18503 0.40371,-0.38689 z"
         id="path5791" />
      <path
         d="m 392.9301,-218.20731 q 0.0841,-0.0505 0.16822,-0.0505 0.35325,0 0.7065,0.48782 0.18503,0.2355 0.18503,0.40372 -0.0168,0.13457 -0.0505,0.16821 -0.82425,0.60557 -3.63343,3.78483 -2.91011,3.31382 -3.83529,4.0876 -0.57193,0.48783 -0.84107,0.50465 h -0.11775 q -1.44664,-0.0336 -1.46346,-1.83354 0,-3.12879 5.652,-16.78779 0.16821,-0.43736 0.42053,-1.02611 1.11022,-2.65778 1.26161,-3.11196 0.0673,-0.11775 0.18504,-0.11775 0.38689,0 0.7906,0.42053 0.20186,0.2355 0.21868,0.42054 0,0.35325 -0.79061,2.13632 -0.30278,0.67286 -0.48782,1.09339 -4.239,10.29472 -5.43332,14.44962 -0.58875,2.08585 -0.60557,3.12878 1.16068,-0.77378 3.73436,-3.768 2.65778,-3.09514 3.39793,-3.85211 0.28596,-0.30278 0.53828,-0.53828 z"
         id="path5793" />
      <path
         d="m 394.74683,-218.79606 q 0.38689,0.33643 0.40371,0.52146 0,0.11775 -0.31961,0.26914 -0.18503,0.0841 -0.25232,0.13458 0.26914,0.89153 1.54757,1.1775 0.67286,-1.21115 0.67286,-2.1195 0,-0.35325 -0.11775,-0.55511 -0.0505,-0.0505 -0.20186,-0.0505 -0.75696,0 -1.413,0.35325 -0.21868,0.13458 -0.3196,0.26915 z m -1.39618,0.11775 q 0,-0.0336 -0.0168,-0.10093 0,-0.0505 0,-0.0841 0,-1.00928 1.11021,-1.39618 0.45418,-0.16821 0.97564,-0.16821 1.21115,0.0168 1.86718,0.65603 0.68968,0.67286 0.68968,1.74943 0,0.63922 -0.28596,1.31207 1.91764,-0.37007 3.34746,-1.53075 0.0673,-0.0505 0.1514,-0.0505 0.35325,0 0.7065,0.471 0.16821,0.21868 0.18503,0.38689 -0.0168,0.10093 -0.0841,0.1514 -2.08585,1.68214 -4.37357,1.68214 -0.31961,0 -0.471,-0.0168 -1.51393,2.45593 -3.54932,2.45593 -0.87472,0 -1.39618,-0.37007 -0.0336,-0.0505 -0.0505,-0.0673 -0.85789,-0.62239 -0.85789,-1.59804 0,-1.32889 1.37936,-2.84282 0.33643,-0.37007 0.67286,-0.63921 z m 0.62239,1.37935 q -1.16068,1.24479 -1.44664,2.37183 -0.0337,0.18503 -0.0505,0.33643 -0.0168,0.30278 0,0.38689 0.2355,0.10093 0.48782,0.10093 1.04293,0 2.2709,-1.36254 0.2355,-0.26914 0.43735,-0.53828 -1.04292,-0.48783 -1.69896,-1.29526 z"
         id="path5795" />
      <path
         d="m 409.36464,-218.10638 q 0.2355,-0.21868 0.67286,0.2355 0.43736,0.45417 0.26914,0.7065 -0.0336,0.0168 -0.0336,0.0336 -0.13457,0.11775 -2.25407,2.45593 -3.70072,4.05396 -5.11372,4.44086 -0.3196,0.0673 -0.53828,0 -0.55511,-0.20186 -0.90836,-0.7065 -0.63922,-0.95882 1.42982,-4.72683 0.15139,-0.28596 0.471,-0.84107 0.42054,-0.75696 0.55511,-1.02611 -2.06904,0.6224 -3.19607,-0.15139 -1.05975,-0.72332 -0.80743,-2.08586 0.18503,-1.05975 0.95882,-1.63168 0.25232,-0.18503 0.50464,-0.25232 0.68968,-0.20185 1.3289,0.471 0.35325,0.3869 0.45417,0.80743 0.13458,0.75697 -0.40371,1.884 0.13457,-0.0336 0.48782,-0.16821 0.84107,-0.30279 1.07657,-0.30279 0.79061,0.0673 1.11022,0.82425 0.18503,0.50465 -1.1775,3.02786 -1.39618,2.60732 -1.6485,3.22972 -0.13457,0.37007 -0.18504,0.60557 1.12704,-0.52147 4.44086,-4.12125 2.16996,-2.37183 2.50639,-2.70825 z m -8.34343,-0.2355 q 0.79061,-1.21115 0.942,-2.08586 -0.38689,0.31961 -0.67285,0.942 -0.18504,0.37007 -0.28597,0.90836 -0.0168,0.18503 0.0168,0.2355 z"
         id="path5797" />
      <path
         d="m 410.45804,-220.52867 q 0.0673,-0.10093 0.18504,-0.11775 0.37007,0 0.7906,0.45418 0.20186,0.2355 0.21868,0.40371 0,0.0505 -0.0336,0.10093 -1.46347,3.09514 -1.61486,4.81093 -0.0168,0.15139 -0.0168,0.28597 0,0.2355 0.0673,0.48782 h 0.0336 q 1.39618,0 4.13807,-2.80918 0.7065,-0.74015 1.21115,-1.34572 0.0505,-0.0673 0.13457,-0.0673 0.28596,0 0.60557,0.50464 0.16821,0.26914 0.16821,0.471 -0.0168,0.0841 -0.0673,0.18504 -3.39793,4.03714 -5.46697,4.10443 -0.18504,0 -0.471,-0.0673 -0.80743,-0.2355 -1.24479,-0.95882 -0.28596,-0.471 -0.28596,-1.21114 0,-1.78308 1.6485,-5.23147 z m 1.86718,-0.75697 q -0.0673,0.0841 -0.18504,0.10093 -0.37007,0 -0.77378,-0.43735 -0.20186,-0.25233 -0.21868,-0.42054 0,-0.0505 0.0336,-0.11775 l 1.39618,-2.23725 q 0.0673,-0.0841 0.20186,-0.0841 0.38689,0 0.79061,0.45418 0.18503,0.21868 0.20185,0.38689 0,0.0505 -0.0336,0.11775 z"
         id="path5799" />
      <path
         d="m 417.15297,-218.79606 q 0.38689,0.33643 0.40371,0.52146 0,0.11775 -0.3196,0.26914 -0.18504,0.0841 -0.25233,0.13458 0.26915,0.89153 1.54758,1.1775 0.67285,-1.21115 0.67285,-2.1195 0,-0.35325 -0.11775,-0.55511 -0.0505,-0.0505 -0.20185,-0.0505 -0.75697,0 -1.413,0.35325 -0.21868,0.13458 -0.31961,0.26915 z m -1.39618,0.11775 q 0,-0.0336 -0.0168,-0.10093 0,-0.0505 0,-0.0841 0,-1.00928 1.11021,-1.39618 0.45418,-0.16821 0.97565,-0.16821 1.21114,0.0168 1.86718,0.65603 0.68967,0.67286 0.68967,1.74943 0,0.63922 -0.28596,1.31207 1.91764,-0.37007 3.34747,-1.53075 0.0673,-0.0505 0.15139,-0.0505 0.35325,0 0.7065,0.471 0.16821,0.21868 0.18503,0.38689 -0.0168,0.10093 -0.0841,0.1514 -2.08586,1.68214 -4.37358,1.68214 -0.3196,0 -0.471,-0.0168 -1.51392,2.45593 -3.54932,2.45593 -0.87471,0 -1.39618,-0.37007 -0.0336,-0.0505 -0.0505,-0.0673 -0.8579,-0.62239 -0.8579,-1.59804 0,-1.32889 1.37936,-2.84282 0.33643,-0.37007 0.67286,-0.63921 z m 0.62239,1.37935 q -1.16068,1.24479 -1.44664,2.37183 -0.0336,0.18503 -0.0505,0.33643 -0.0168,0.30278 0,0.38689 0.2355,0.10093 0.48782,0.10093 1.04293,0 2.27089,-1.36254 0.2355,-0.26914 0.43736,-0.53828 -1.04293,-0.48783 -1.69897,-1.29526 z"
         id="path5801" />
      <path
         d="m 424.9413,-220.79781 q 0.0673,-0.0841 0.18504,-0.0841 0.37007,0 0.77378,0.43736 0.20186,0.25232 0.21868,0.42053 0,0.0673 -0.0336,0.11775 -1.34572,1.90082 -1.90082,3.58297 -0.23551,0.7065 -0.23551,1.21114 0,0.11775 0.0337,0.30279 1.36253,-0.471 4.07079,-4.0035 0.57192,-0.74015 0.99246,-1.34572 0.13457,-0.16821 0.31961,-0.18504 0.40371,0 0.74014,0.50465 0.15139,0.2355 0.15139,0.38689 -0.0168,0.0841 -0.0505,0.13457 -0.45418,1.37936 -0.7065,2.99422 -0.0841,0.53828 -0.0841,0.89153 0.0168,0.48783 0.16822,0.58875 0.13457,0.0841 0.38689,0.0841 1.14386,0 3.65025,-1.85036 1.32889,-0.99246 1.79989,-1.56439 0.10093,-0.0841 0.16822,-0.0841 0.35325,0 0.72332,0.45418 0.16821,0.2355 0.18504,0.38689 -0.0168,0.0841 -0.0505,0.13458 -0.99246,1.21114 -2.65779,2.28771 -1.83353,1.1775 -3.17925,1.1775 -0.7065,-0.0168 -1.21114,-0.33643 -1.14386,-0.77378 -1.14386,-2.355 v -0.2355 q -2.08586,2.5064 -3.297,2.96057 -0.0336,0 -0.0673,0.0168 -0.1514,0.0505 -0.31961,0.0505 -0.67286,-0.0168 -1.26161,-0.65604 -0.50464,-0.58875 -0.50464,-1.44664 0,-1.93446 2.13632,-4.97914 z"
         id="path5803" />
      <path
         d="m 437.50691,-222.02578 q 0.0673,-0.0336 0.13457,-0.0336 0.38689,0 0.80743,0.471 0.16821,0.2355 0.18503,0.38689 -0.0168,0.11775 -0.0841,0.15139 -1.66533,0.97565 -1.96811,1.86718 -0.10093,0.28597 -0.10093,0.58875 0.0168,0.74015 0.63921,1.98493 2.40547,-1.0261 5.02961,-1.63168 h 0.0841 q 0.42054,0 0.82425,0.50465 0.15139,0.21868 0.16822,0.37007 -0.0337,0.13457 -0.1514,0.16821 -3.07832,0.7065 -5.45014,1.7999 0.0841,0.3196 0.0841,0.5551 0,1.24479 -2.08585,2.20361 -0.0168,0.0168 -0.0336,0.0168 -0.75696,0.33643 -1.09339,0.33643 -0.67286,-0.0336 -1.14386,-0.84107 -0.11775,-0.21868 -0.11775,-0.45418 0.0168,-1.19432 3.09515,-2.67461 -0.82425,-1.58121 -0.95882,-1.9681 -0.18504,-0.53829 -0.18504,-0.95883 0.0336,-1.4971 2.32136,-2.84282 z m -2.43911,8.17522 q 0.67286,-0.37007 1.02611,-0.74014 -0.55511,0.35325 -1.02611,0.74014 z"
         id="path5805" />
    </g>
    <path
       id="path1174"
       d="M 99.716096,-202.00324 70.50213,-222.15199"
       style="fill:#fff554;fill-opacity:1;stroke:#fff554;stroke-width:3.83013;stroke-linecap:round;stroke-linejoin:round;stroke-miterlimit:4;stroke-dasharray:none;stroke-opacity:1" />
    <path
       id="path1077"
       d="m 95.541756,-190.96904 -34.605623,-7.86631"
       style="fill:#fff554;fill-opacity:1;stroke:#fff554;stroke-width:6;stroke-linecap:round;stroke-linejoin:round;stroke-miterlimit:4;stroke-dasharray:none;stroke-opacity:1" />
    <path
       id="path1079"
       d="M 114.81292,-210.68361 85.251356,-240.04938"
       style="fill:#fff554;fill-opacity:1;stroke:#fff554;stroke-width:7.07425;stroke-linecap:round;stroke-linejoin:round;stroke-miterlimit:4;stroke-dasharray:none;stroke-opacity:1" />
    <path
       id="path1651"
       style="fill:#ff6fbf;fill-opacity:1;stroke:none;stroke-width:0.214132px;stroke-linecap:butt;stroke-linejoin:miter;stroke-opacity:1"
       d="m 105.56826,-155.16092 c -8.073734,-0.11418 -9.977734,11.8018 1.44901,15.3603 -0.0121,0.0561 -0.016,0.0974 -0.0263,0.15038 -8.215464,1.89865 -8.453454,14.95765 2.56211,15.21354 -5.66803,7.21015 4.45226,16.67604 12.55686,12.22147 -0.0438,6.06456 10.55451,10.90833 15.17427,3.14555 -0.0911,6.80412 13.61862,12.19149 18.67535,-2.39572 -33.46018,-10.5289 -47.46418,-29.90715 -50.39125,-43.69552 z" />
    <g
       id="g1528"
       transform="rotate(-20.515124,475.30019,-71.892555)">
      <path
         id="path1501"
         d="m 493.03438,-169.83117 35.23341,4.24673"
         style="fill:#fff554;fill-opacity:1;stroke:#fff554;stroke-width:3.83013;stroke-linecap:round;stroke-linejoin:round;stroke-miterlimit:4;stroke-dasharray:none;stroke-opacity:1" />
      <path
         id="path1503"
         d="m 491.59684,-181.54066 34.29284,-9.13399"
         style="fill:#fff554;fill-opacity:1;stroke:#fff554;stroke-width:6;stroke-linecap:round;stroke-linejoin:round;stroke-miterlimit:4;stroke-dasharray:none;stroke-opacity:1" />
      <path
         id="path1505"
         d="m 483.70816,-155.12455 39.82857,12.24415"
         style="fill:#fff554;fill-opacity:1;stroke:#fff554;stroke-width:7.07425;stroke-linecap:round;stroke-linejoin:round;stroke-miterlimit:4;stroke-dasharray:none;stroke-opacity:1" />
    </g>
    <path
       style="opacity:0.466667;fill:#ffffff;fill-opacity:1;stroke:none;stroke-width:0.264583px;stroke-linecap:butt;stroke-linejoin:miter;stroke-opacity:1"
       d="m 237.63686,-123.54279 c -15.21065,1.27975 -15.55477,-18.79894 -14.97346,-32.55099 2.81561,22.2787 5.94096,24.46342 14.97346,32.55099 z"
       id="path1842" />
    <path
       style="opacity:0.466667;fill:#ffffff;fill-opacity:1;stroke:none;stroke-width:0.264583px;stroke-linecap:butt;stroke-linejoin:miter;stroke-opacity:1"
       d="m 251.63378,-163.41776 c -6.3793,10.97618 -5.78028,31.91508 10.90459,28.80763 -15.01871,-8.73873 -11.69774,-18.58362 -10.90459,-28.80763 z"
       id="path2493" />
    <path
       style="opacity:0.466667;fill:#ffffff;fill-opacity:1;stroke:none;stroke-width:0.264583px;stroke-linecap:butt;stroke-linejoin:miter;stroke-opacity:1"
       d="m 256.55734,-124.88574 c 0.29846,11.70617 5.25091,14.35061 13.50866,15.13622 -7.10705,-3.21463 -11.60401,-8.45341 -13.50866,-15.13622 z"
       id="path2661" />
    <path
       style="opacity:0.466667;fill:#ffffff;fill-opacity:1;stroke:none;stroke-width:0.264583px;stroke-linecap:butt;stroke-linejoin:miter;stroke-opacity:1"
       d="m 314.61996,-129.72748 c -16.64632,7.11608 -26.42811,-20.22647 -19.20509,-29.45865 0.81406,-1.0405 3.60606,-0.0115 3.74335,1.30204 1.26663,12.11918 1.62757,28.15661 15.46174,28.15661 z"
       id="path2791" />
    <path
       style="opacity:0.466667;fill:#ffffff;fill-opacity:1;stroke:none;stroke-width:0.264583px;stroke-linecap:butt;stroke-linejoin:miter;stroke-opacity:1"
       d="m 348.79849,-133.30809 c -12.4618,24.2735 -21.59292,-26.37688 -13.18316,-24.08773 2.3655,0.77157 1.95306,30.76068 13.18316,24.08773 z"
       id="path3514" />
    <path
       style="opacity:0.466667;fill:#ffffff;fill-opacity:1;stroke:none;stroke-width:0.264583px;stroke-linecap:butt;stroke-linejoin:miter;stroke-opacity:1"
       d="m 369.63112,-128.75095 c -8.00178,3.57283 -6.84011,-6.73626 -7.81222,-14.15968 1.99742,7.4239 3.89552,13.70584 7.81222,14.15968 z"
       id="path3943" />
    <path
       style="opacity:0.466667;fill:#ffffff;fill-opacity:1;stroke:none;stroke-width:0.264583px;stroke-linecap:butt;stroke-linejoin:miter;stroke-opacity:1"
       d="m 383.62807,-158.69787 c -0.66846,10.70133 0.61461,23.39575 5.37089,31.57447 -11.32261,-9.13143 -9.2694,-32.0618 -5.37089,-31.57447 z"
       id="path4035" />
    <path
       style="opacity:0.466667;fill:#ffffff;fill-opacity:1;stroke:none;stroke-width:0.264583px;stroke-linecap:butt;stroke-linejoin:miter;stroke-opacity:1"
       d="m 416.43641,-152.34787 c 0.46105,11.05567 1.08599,16.24192 6.42922,25.22447 -9.58258,-5.24896 -9.6471,-23.1254 -6.42922,-25.22447 z"
       id="path4364" />
  </g>
</svg>
