<?xml version="1.0" encoding="UTF-8"?>
<svg width="586mm" height="200mm" version="1.1" viewBox="0 0 586 200" xmlns="http://www.w3.org/2000/svg"><g transform="translate(-25.8 274)"><g><rect x="25.8" y="-274" width="587" height="200" fill="#ffe0ee" stroke-width="4.29"/><path d="m185-170c15 0.641 12.9 17.7 2.96 19.2 16.9 2.37 9.15 21.5 1.7 21.1 10.6 11.7 0.0968 26-12.7 19.2 2.91 10.6-13.7 16.2-17.3 5.59-5.92 17.7-22 11.2-21.9 2.91-5.41 9.44-17.8 3.55-17.8-3.83-9.49 5.42-21.3-6.1-14.7-14.9-12.9-0.312-12.6-16.3-2.94-18.5 2.25 0.913-0.914 4.12-0.0264-0.167-13.4-4.33-11.1-18.8-1.7-18.7-4.51-6.35 2.83-15.1 10.8-14.2" fill="#ff1999"/><path d="m179-173c3.87 0.444 3.86 1.63 3.54 5.6-23.4 29.8-83.7 13.5-69.8-1.97" fill="#ffb7df"/><path d="m178-170c-0.767-22.8-14.5-41.7-32.4-41.7-25.4-0.0763-37.7 33.2-31.6 49.3 17.7 14 58.8 5.47 64-7.6z" fill="#fff"/><circle cx="138" cy="-184" r="2.52" fill="#676767"/><circle cx="163" cy="-183" r="2.92" fill="#676767"/></g><path d="m146-183c-0.253 1.95 0.368 3.81 2.14 4.17 2.63 0.539 3.66-1.31 4.58-3.44" fill="none" stroke="#676767" stroke-linecap="round" stroke-linejoin="round" stroke-width=".948"/><g fill="#e7008e" stroke-width="2.71" aria-label="lychee"><path d="m240-129c-5.19-5.63-1.51-45-1.19-53.8 0-1.19-0.108-2.27-0.216-3.46-0.866-5.19-7.47-6.6-10.1-1.51-6.17 12.1-13.3 53-1.3 64.2 2.92 2.49 7.25 3.46 10.7 2.16 3.14-1.41 4.76-5.41 2.06-7.57z"/><path d="m246-143c2.92 11.6 15.9 15.1 23 3.9 1.51-2.27 2.81-4.87 4-7.25 0.216 4.44 0.108 12.4-2.06 18.2-1.51 4-5.73 9.09-7.9 2.49-0.541-1.73-1.73-2.81-3.46-3.03-2.06-0.108-3.46 0.649-4.33 2.06-1.41 2.81-0.757 6.06 0.108 9.09 3.79 12.8 21.4 11.7 27.1-0.974 4.65-10.6 1.08-28.2-0.866-37.4-1.73-7.36-7.9-6.71-9.95-0.866-1.51 3.57-3.14 6.6-4.44 8.87-12.3 21.5-8.01-8.87-1.95-17.3 2.92-4.33-3.14-8.33-9.41-5.09-8.12 3.9-12.6 17.1-9.85 27.4z"/><path d="m310-164c1.41-3.03 5.52-8.22 5.84-5.19 0.757 6.82 8.66 7.03 9.31-2.27 0.216-2.81-0.216-4.98-1.3-6.71-2.92-4.65-8.55-5.73-13.9-4.54-7.79 1.73-13.4 8.87-16.2 16.4-3.79 9.95-3.35 22.2 1.41 31.4 6.82 13 21.4 12.3 26.3-2.6 1.08-3.35 1.73-6.82 2.06-9.74 0.433-5.3-5.09-6.93-6.38-1.08-1.95 20.6-8.76 14.3-10.1 2.27-0.649-6.71-0.433-10.8 2.92-18z"/><path d="m349-130c0.866-2.16 3.25-22.5 8.22-19.3 5.19 3.46 2.6 14.3 4.54 19.7 2.27 6.17 10.8 5.3 9.85-0.433-1.3-7.47-0.541-15.3-3.79-22.5-3.57-7.9-12.6-8.44-17.6-2.27-4.11 4.98-4.22 5.3-4.33 0.974 0-9.85 0.216-19.5 1.08-29.9 0-9.09-8.01-9.31-11.5-1.51-3.25 7.47-7.47 35.4-2.92 51.4 1.3 4.33 3.57 10.4 9.31 9.74 2.92-0.216 5.84-2.38 7.14-5.95z"/><path d="m392-144c6.93 2.38 14.5-3.79 15.7-10.8 3.9-20.8-20.7-19.4-26.9-2.49-3.14 8.55-2.6 18.2 1.3 25 6.71 11.8 18.6 9.85 25.6-2.71 2.49-4.33-1.08-10.4-4.76-3.35-4.54 7.9-14 11-10.9-5.63zm1.08-6.38c0.541-5.41 4.76-14.1 7.9-13.2 4.33 4.65-0.216 12.6-7.9 13.2zm31.9 6.17c8.66 0.433 13.6-8.44 11.8-16.8-0.866-3.9-3.57-8.44-8.87-8.33-4.98 0.325-9.41 4-11.5 8.87-3.46 7.79-4.65 20.9-0.325 28.8 4.87 9.09 17 9.09 20.6-2.27 0.757-2.49 1.19-5.3 1.41-7.79 0.649-4.11-4.54-4.33-5.41-0.757-0.757 2.92-1.19 4.65-1.95 7.25-2.81 6.82-6.82-1.95-5.73-8.98zm0.541-6.71c1.08-4.11 2.6-7.79 4.65-10.9 3.68 2.92 1.95 10.9-4.65 10.9z"/></g><g fill="#a40b73" stroke-width=".861" aria-label="Introducing the glorious"><path d="m227-207h-0.0336l-0.0336 0.0168q-0.421 0-0.807-0.505-0.168-0.219-0.168-0.37 0.0336-0.135 0.168-0.168 0 0 0.185-0.0336 2.66-0.387 4.78-0.639 0.471-3.78 7.06-19.6 0.639-1.53 1.23-2.91-0.622 0.0841-1.28 0.168-0.656 0.0841-1.16 0.168-0.488 0.0673-0.892 0.135-0.404 0.0505-0.622 0.0841l-0.219 0.0336h-0.0673q-0.421 0-0.824-0.505-0.151-0.219-0.168-0.37 0.0336-0.135 0.168-0.168 0 0 0.135-0.0168 3.04-0.471 5.43-0.74 0.219-0.454 0.437-0.471 0.236 0.0168 0.606 0.37 1.85-0.185 2.89-0.185 0.555 0 0.774 0.0336 0.841 0.101 1.23 0.69 0.118 0.185 0.118 0.303-0.0336 0.151-0.151 0.185h-0.0336q-0.0505 0-0.185-0.0336-0.521-0.135-1.03-0.135h-0.0505q-1.4 0.0336-3.52 0.269-6.07 14.2-8.02 20.6-0.353 1.14-0.521 1.92 2-0.219 3.2-0.219 0.421 0 0.858 0.0673 0.723 0.118 1.11 0.791 0.118 0.185 0.118 0.303-0.0168 0.0673-0.0505 0.0841-0.0336-0.0168-0.0673-0.0336-0.32-0.151-1.3-0.151-1.11 0-4.04 0.32-0.0336 0.404-0.269 0.421-0.269-0.0168-0.606-0.32-0.639 0.0841-1.33 0.168-0.69 0.101-1.21 0.168-0.521 0.0673-0.959 0.135-0.421 0.0673-0.656 0.101z"/><path d="m242-220q0.0673-0.0841 0.185-0.101 0.37 0 0.791 0.454 0.202 0.236 0.219 0.404 0 0.0505-0.0336 0.101-0.0168 0.0336-1.75 3.43 3.25-3.15 4.41-3.63 0.135-0.0505 0.236-0.0841 0.219-0.0505 0.387-0.0505 0.791 0.0168 1.33 0.656 0.437 0.521 0.437 1.75 0 0.387-0.185 2.09-0.0168 0.185-0.0168 0.269 0 0.101 0.0336 0.135 0.0336 0.0168 0.0505 0.0168 0.589 0 4.15-2.67 0.471-0.353 0.606-0.471 0.0505-0.0336 0.118-0.0336 0.303 0 0.639 0.538 0.168 0.286 0.168 0.488-0.0168 0.118-0.0841 0.202-1.68 1.38-2.36 1.82-1.56 1.01-2.61 1.01-0.606-0.0168-1.06-0.336-0.791-0.639-0.791-1.98 0-0.387 0.0673-1.16 0.0673-0.723 0.0673-1.04v-0.185q-0.992 0.252-3.92 3.08-2.29 2.2-2.64 2.51-0.572 0.471-0.774 0.488-0.959-0.0841-1.01-0.908 0-0.353 3.33-6.76z"/><path d="m258-232q0.101-0.269 0.606 0.0168 0.0673 0.0336 0.101 0.0505 0.471 0.32 0.488 0.656-0.0168 0.0505-0.0168 0.0841 0 0-0.168 0.488-0.976 2.81-1.78 5.27 9.62-0.959 13.4 0.757 0.488 0.219 0.639 0.639 0.0168 0.0505 0.0337 0.0841 0.0505 0.252-0.219 0.252-0.135-0.0168-0.286-0.0841-3.68-1.68-13.9-0.488-0.387 1.19-1.28 3.82-3.15 9.42-3.9 12.6-0.471 2.04-0.404 2.88 0.0168 0.286-0.353 0.202-0.118-0.0336-0.219-0.0841-0.488-0.236-0.622-0.639-0.0168-0.0673-0.0168-0.101-0.151-1.88 2.69-10.7 0.437-1.33 1.33-4.02 0.875-2.62 1.26-3.84-1.38 0.185-2.81 0.421-1.43 0.219-2.49 0.421-1.08 0.185-1.93 0.353-0.858 0.168-1.33 0.269l-0.454 0.0841q-0.336 0.0841-0.774-0.353-0.0505-0.0505-0.0841-0.0841-0.0336-0.0505-0.0673-0.0841-0.0505-0.0505-0.0673-0.101-0.0336-0.0505-0.0505-0.0841-0.0168-0.0336-0.0168-0.0673-0.0168-0.0505-0.0168-0.0841t0.0168-0.0505q0-0.0336 0.0336-0.0505 0.0168-0.0336 0.0505-0.0505 0.0168-0.0168 0.0505-0.0168 0 0 0.168-0.0336 5.23-1.08 10.2-1.67 0.555-1.7 1.13-3.38 0.572-1.7 0.858-2.52z"/><path d="m266-218q0.236-0.219 0.673 0.236 0.437 0.454 0.269 0.706-0.0336 0.0168-0.0336 0.0336-0.135 0.118-2.25 2.46-3.7 4.05-5.11 4.44-0.32 0.0673-0.538 0-0.555-0.202-0.908-0.706-0.639-0.959 1.43-4.73 0.151-0.286 0.471-0.841 0.421-0.757 0.555-1.03-2.07 0.622-3.2-0.151-1.06-0.723-0.807-2.09 0.185-1.06 0.959-1.63 0.252-0.185 0.505-0.252 0.69-0.202 1.33 0.471 0.353 0.387 0.454 0.807 0.135 0.757-0.404 1.88 0.135-0.0336 0.488-0.168 0.841-0.303 1.08-0.303 0.791 0.0673 1.11 0.824 0.185 0.505-1.18 3.03-1.4 2.61-1.65 3.23-0.135 0.37-0.185 0.606 1.13-0.521 4.44-4.12 2.17-2.37 2.51-2.71zm-8.34-0.236q0.791-1.21 0.942-2.09-0.387 0.32-0.673 0.942-0.185 0.37-0.286 0.908-0.0168 0.185 0.0168 0.236z"/><path d="m268-219q0.387 0.336 0.404 0.521 0 0.118-0.32 0.269-0.185 0.0841-0.252 0.135 0.269 0.892 1.55 1.18 0.673-1.21 0.673-2.12 0-0.353-0.118-0.555-0.0505-0.0505-0.202-0.0505-0.757 0-1.41 0.353-0.219 0.135-0.32 0.269zm-1.4 0.118q0-0.0336-0.0168-0.101 0-0.0505 0-0.0841 0-1.01 1.11-1.4 0.454-0.168 0.976-0.168 1.21 0.0168 1.87 0.656 0.69 0.673 0.69 1.75 0 0.639-0.286 1.31 1.92-0.37 3.35-1.53 0.0673-0.0505 0.151-0.0505 0.353 0 0.706 0.471 0.168 0.219 0.185 0.387-0.0168 0.101-0.0841 0.151-2.09 1.68-4.37 1.68-0.32 0-0.471-0.0168-1.51 2.46-3.55 2.46-0.875 0-1.4-0.37-0.0337-0.0505-0.0505-0.0673-0.858-0.622-0.858-1.6 0-1.33 1.38-2.84 0.336-0.37 0.673-0.639zm0.622 1.38q-1.16 1.24-1.45 2.37-0.0336 0.185-0.0505 0.336-0.0168 0.303 0 0.387 0.236 0.101 0.488 0.101 1.04 0 2.27-1.36 0.236-0.269 0.437-0.538-1.04-0.488-1.7-1.3z"/><path d="m281-220q-0.0168-0.0168-0.0673-0.0505-0.0336-0.0168-0.0505-0.0336-0.0673 0.135-0.269 0.505-1.92 3.55-3.25 4.69-0.774 0.656-1.41 0.656-0.437-0.0168-0.774-0.252-0.942-0.757-0.959-2.29 0-0.791 0.32-1.67 0.791-2.09 2.36-2.88 0.74-0.37 1.55-0.37 0.74 0 1.51 0.32 2.47-4.46 5.15-10.4l0.0336-0.0505q0.0673-0.101 0.202-0.118 0.37 0 0.791 0.404 0.269 0.269 0.202 0.454-2.59 6.46-4.9 13.5-2.36 7.18-2.36 9.34 0 0.101 0.0337 0.252 0.0168 0.135 0.0168 0.202-0.0336 0.151-0.202 0.168-0.387 0-0.791-0.404-0.185-0.202-0.219-0.387-0.0337-0.168-0.0337-0.538 0-2.27 2.73-9.92 0.185-0.505 0.387-1.06zm-1.46-0.606q-0.202-0.0336-0.303-0.0336-1.46 0-2.73 1.7-1.04 1.41-1.19 2.81-0.0168 0.168-0.0168 0.303 0 0.353 0.101 0.606 1.28-0.387 4.14-5.38z"/><path d="m286-221q0.0673-0.0841 0.185-0.0841 0.37 0 0.774 0.437 0.202 0.252 0.219 0.421 0 0.0673-0.0336 0.118-1.35 1.9-1.9 3.58-0.236 0.706-0.236 1.21 0 0.118 0.0336 0.303 1.36-0.471 4.07-4 0.572-0.74 0.992-1.35 0.135-0.168 0.32-0.185 0.404 0 0.74 0.505 0.151 0.236 0.151 0.387-0.0168 0.0841-0.0505 0.135-0.454 1.38-0.707 2.99-0.0841 0.538-0.0841 0.892 0.0168 0.488 0.168 0.589 0.135 0.0841 0.387 0.0841 1.14 0 3.65-1.85 1.33-0.992 1.8-1.56 0.101-0.0841 0.168-0.0841 0.353 0 0.723 0.454 0.168 0.236 0.185 0.387-0.0168 0.0841-0.0505 0.135-0.992 1.21-2.66 2.29-1.83 1.18-3.18 1.18-0.706-0.0168-1.21-0.336-1.14-0.774-1.14-2.36v-0.236q-2.09 2.51-3.3 2.96-0.0336 0-0.0673 0.0168-0.151 0.0505-0.32 0.0505-0.673-0.0168-1.26-0.656-0.505-0.589-0.505-1.45 0-1.93 2.14-4.98z"/><path d="m302-218q-0.0841 0.168-0.236 0.185-0.37 0-0.774-0.505-0.236-0.303-0.185-0.488l0.236-0.69q-0.959 0.185-2.24 1.6-1.45 1.58-1.7 2.96-0.0505 0.236-0.0505 0.437 0.0168 0.421 0.202 0.723 0.219 0.0505 0.421 0.0505 1.63 0 5.67-2.66 0.353-0.219 1.03-0.673 1.09-0.74 1.5-0.976 0.0841-0.0505 0.135-0.0505 0.387 0 0.807 0.488 0.168 0.236 0.185 0.387-0.0168 0.118-0.0841 0.151-0.437 0.269-1.56 1.03-3.23 2.15-4.83 2.83-1.26 0.521-2.15 0.521-0.168 0-0.421-0.0336-1.09-0.185-1.7-1.18-0.286-0.471-0.353-0.992-0.0168-0.101-0.0168-0.252 0-1.41 1.33-3.15 1.28-1.63 2.69-2.15 0.454-0.151 0.841-0.151 0.908 0.0168 1.43 0.807 0.168 0.269 0.168 0.572 0 0.252-0.286 1.08-0.0336 0.0841-0.0505 0.135z"/><path d="m307-221q0.0673-0.101 0.185-0.118 0.37 0 0.791 0.454 0.202 0.236 0.219 0.404 0 0.0505-0.0336 0.101-1.46 3.1-1.61 4.81-0.0168 0.151-0.0168 0.286 0 0.236 0.0673 0.488h0.0336q1.4 0 4.14-2.81 0.706-0.74 1.21-1.35 0.0505-0.0673 0.135-0.0673 0.286 0 0.606 0.505 0.168 0.269 0.168 0.471-0.0168 0.0841-0.0673 0.185-3.4 4.04-5.47 4.1-0.185 0-0.471-0.0673-0.807-0.236-1.24-0.959-0.286-0.471-0.286-1.21 0-1.78 1.65-5.23zm1.87-0.757q-0.0673 0.0841-0.185 0.101-0.37 0-0.774-0.437-0.202-0.252-0.219-0.421 0-0.0505 0.0336-0.118l1.4-2.24q0.0673-0.0841 0.202-0.0841 0.387 0 0.791 0.454 0.185 0.219 0.202 0.387 0 0.0505-0.0336 0.118z"/><path d="m313-220q0.0673-0.0841 0.185-0.101 0.37 0 0.791 0.454 0.202 0.236 0.219 0.404 0 0.0505-0.0336 0.101-0.0168 0.0336-1.75 3.43 3.25-3.15 4.41-3.63 0.135-0.0505 0.236-0.0841 0.219-0.0505 0.387-0.0505 0.791 0.0168 1.33 0.656 0.437 0.521 0.437 1.75 0 0.387-0.185 2.09-0.0168 0.185-0.0168 0.269 0 0.101 0.0336 0.135 0.0336 0.0168 0.0505 0.0168 0.589 0 4.15-2.67 0.471-0.353 0.606-0.471 0.0505-0.0336 0.118-0.0336 0.303 0 0.639 0.538 0.168 0.286 0.168 0.488-0.0168 0.118-0.0841 0.202-1.68 1.38-2.36 1.82-1.56 1.01-2.61 1.01-0.606-0.0168-1.06-0.336-0.791-0.639-0.791-1.98 0-0.387 0.0673-1.16 0.0673-0.723 0.0673-1.04v-0.185q-0.992 0.252-3.92 3.08-2.29 2.2-2.64 2.51-0.572 0.471-0.774 0.488-0.959-0.0841-1.01-0.908 0-0.353 3.33-6.76z"/><path d="m328-220q0.269 0.0673 0.572 0.303 0.236-0.32 0.538-0.791 0.336-0.505 1.04 0.151 0.202 0.202 0.32 0.37 0.421 0.656-0.538 4.19-0.0673 0.236-0.135 0.454 1.55-0.959 3.13-1.88 0.723-0.421 1.03-0.606 0.252-0.151 0.74 0.219 0.0505 0.0505 0.0841 0.0841 0.421 0.404 0.286 0.639-0.0336 0.0336-0.0505 0.0505-0.37 0.236-1.03 0.606-3.03 1.78-4.83 2.96-1.98 5.99-4.24 9.52-0.757 1.21-1.48 1.97-1.85 1.92-3.53 0.37-4.88-4.24 7.5-12.4 0.185-0.135 0.606-0.404 0.824-2.46 1.18-3.9-2.27 3.03-3.78 3.55-1.5 0.505-2.14-0.74-0.135-0.303-0.219-0.656-0.37-1.61 1.03-2.88 1.23-1.11 2.94-1.23 0.521-0.0168 0.976 0.0505zm0.0841 0.976q-1.36-0.0673-2.61 0.892-1.28 1.01-1.28 2.27 0 0.236 0.0505 0.454 0.118 0.471 3.16-2.86 0.572-0.639 0.673-0.757zm-5.75 16.3q2.17-2.29 4.64-8.61 0.135-0.336 0.252-0.656-5.74 4.04-7.17 6.93-0.976 2.02 0.37 3.2l0.0673 0.0673q0.521 0.252 1.43-0.538 0.202-0.185 0.404-0.387z"/><path d="m358-218q0.286-0.185 0.807 0.286 0.488 0.437 0.286 0.656-0.0168 0.0336-0.0336 0.0336-0.168 0.101-0.572 0.37-2.32 1.56-3.58 1.93-1.63 0.488-2.52-0.404-0.774-0.774-0.875-2.67-0.0168-0.118-0.0336-0.639-1.19 0.74-3.23 3.68-1.73 2.52-1.93 2.78-0.219 0.286-0.404 0.488-0.421 0.303-0.976-0.185-0.437-0.421-0.421-0.875 0.101-1.65 4.74-14-1.35 0.774-3.11 1.46-6.07 17.4-5.82 20.5 0.0168 0.286-0.37 0.185-0.101-0.0336-0.202-0.0841-0.488-0.236-0.622-0.639-0.0168-0.0673-0.0168-0.101-0.236-3.1 5.35-19.2-4.42 1.48-9.32 2.24-0.219 0.0336-0.252 0.0336-0.353 0.0505-0.791-0.387-0.0337-0.0505-0.0673-0.0841-0.0505-0.0673-0.0841-0.135-0.0505-0.0673-0.0673-0.135-0.0337-0.0673-0.0337-0.118 0-0.0505 0.0168-0.0841t0.0673-0.0673q0.0336-0.0337 0.0841-0.0337 0.387 0 2.99-0.538 4.59-0.925 7.99-2.24 0.505-1.45 1.01-2.86 0.521-1.43 0.774-2.1l0.252-0.69q0.101-0.269 0.589 0.0168 0.0673 0.0336 0.118 0.0673 0.471 0.32 0.488 0.656-0.0168 0.0505-0.0168 0.0841-0.0168-0.0168-1.48 4.1 2.1-0.976 3.4-2.12 0.219-0.572 0.387-1.01 0.168-0.454 0.286-0.791 0.135-0.336 0.202-0.521l0.0673-0.168q0.118-0.303 0.69 0.0673 0.185 0.135 0.32 0.269 0.118 0.0505 0.303 0.168 0.521 0.387 0.488 0.706-0.0168 0.0168-0.0168 0.0336-0.404 1.06-1.56 2.12-3.41 9.02-4.9 13.6 0.202-0.269 0.656-0.942 2.02-2.91 2.96-3.73 0.151-0.135 0.286-0.236 0.589-0.421 1.16-0.101 1.01 0.572 1.19 1.82 0.0336 0.219 0.0505 0.673 0.0841 0.976 0.269 1.4 1.14 0.0673 5.03-2.46z"/><path d="m359-215q-0.269 0.135-0.269 0.757 0.0168 0.589 0.336 0.706 0.32 0.101 0.69 0.101 2.12 0 5.95-2.81 0.992-0.723 1.75-1.4 0.0673-0.0505 0.135-0.0505 0.336 0 0.69 0.505 0.185 0.269 0.185 0.454-0.0168 0.101-0.0673 0.168-0.404 0.404-1.78 1.4-3.82 2.74-6.16 2.76-0.303 0-0.437-0.0168-2.14-0.286-2.37-1.95-0.0337-0.185-0.0337-0.37 0-1.53 1.31-3.25 1.19-1.56 2.49-1.98 0.286-0.0841 0.538-0.101h0.0673q0.791 0 1.35 0.69 0.353 0.454 0.353 0.925-0.0168 0.336-0.168 0.622-0.168 0.303-0.521 0.622-0.336 0.32-0.757 0.589-0.404 0.269-0.875 0.521-0.454 0.252-0.875 0.454-0.421 0.202-0.774 0.353-0.336 0.151-0.538 0.219zm0.942-1.87q2.27-1.16 2.56-2.12-0.992 0.303-2.22 1.72-0.185 0.202-0.336 0.404z"/><path d="m380-220q0.269 0.0673 0.572 0.303 0.236-0.32 0.538-0.791 0.336-0.505 1.04 0.151 0.202 0.202 0.32 0.37 0.421 0.656-0.538 4.19-0.0673 0.236-0.135 0.454 1.55-0.959 3.13-1.88 0.723-0.421 1.03-0.606 0.252-0.151 0.74 0.219 0.0505 0.0505 0.0841 0.0841 0.421 0.404 0.286 0.639-0.0336 0.0336-0.0505 0.0505-0.37 0.236-1.03 0.606-3.03 1.78-4.83 2.96-1.98 5.99-4.24 9.52-0.757 1.21-1.48 1.97-1.85 1.92-3.53 0.37-4.88-4.24 7.5-12.4 0.185-0.135 0.606-0.404 0.824-2.46 1.18-3.9-2.27 3.03-3.78 3.55-1.5 0.505-2.14-0.74-0.135-0.303-0.219-0.656-0.37-1.61 1.03-2.88 1.23-1.11 2.94-1.23 0.521-0.0168 0.976 0.0505zm0.0841 0.976q-1.36-0.0673-2.61 0.892-1.28 1.01-1.28 2.27 0 0.236 0.0505 0.454 0.118 0.471 3.16-2.86 0.572-0.639 0.673-0.757zm-5.75 16.3q2.17-2.29 4.64-8.61 0.135-0.336 0.252-0.656-5.74 4.04-7.17 6.93-0.976 2.02 0.37 3.2l0.0673 0.0673q0.521 0.252 1.43-0.538 0.202-0.185 0.404-0.387z"/><path d="m393-218q0.0841-0.0505 0.168-0.0505 0.353 0 0.706 0.488 0.185 0.236 0.185 0.404-0.0168 0.135-0.0505 0.168-0.824 0.606-3.63 3.78-2.91 3.31-3.84 4.09-0.572 0.488-0.841 0.505h-0.118q-1.45-0.0336-1.46-1.83 0-3.13 5.65-16.8 0.168-0.437 0.421-1.03 1.11-2.66 1.26-3.11 0.0673-0.118 0.185-0.118 0.387 0 0.791 0.421 0.202 0.236 0.219 0.421 0 0.353-0.791 2.14-0.303 0.673-0.488 1.09-4.24 10.3-5.43 14.4-0.589 2.09-0.606 3.13 1.16-0.774 3.73-3.77 2.66-3.1 3.4-3.85 0.286-0.303 0.538-0.538z"/><path d="m395-219q0.387 0.336 0.404 0.521 0 0.118-0.32 0.269-0.185 0.0841-0.252 0.135 0.269 0.892 1.55 1.18 0.673-1.21 0.673-2.12 0-0.353-0.118-0.555-0.0505-0.0505-0.202-0.0505-0.757 0-1.41 0.353-0.219 0.135-0.32 0.269zm-1.4 0.118q0-0.0336-0.0168-0.101 0-0.0505 0-0.0841 0-1.01 1.11-1.4 0.454-0.168 0.976-0.168 1.21 0.0168 1.87 0.656 0.69 0.673 0.69 1.75 0 0.639-0.286 1.31 1.92-0.37 3.35-1.53 0.0673-0.0505 0.151-0.0505 0.353 0 0.706 0.471 0.168 0.219 0.185 0.387-0.0168 0.101-0.0841 0.151-2.09 1.68-4.37 1.68-0.32 0-0.471-0.0168-1.51 2.46-3.55 2.46-0.875 0-1.4-0.37-0.0336-0.0505-0.0505-0.0673-0.858-0.622-0.858-1.6 0-1.33 1.38-2.84 0.336-0.37 0.673-0.639zm0.622 1.38q-1.16 1.24-1.45 2.37-0.0337 0.185-0.0505 0.336-0.0168 0.303 0 0.387 0.236 0.101 0.488 0.101 1.04 0 2.27-1.36 0.236-0.269 0.437-0.538-1.04-0.488-1.7-1.3z"/><path d="m409-218q0.236-0.219 0.673 0.236 0.437 0.454 0.269 0.706-0.0336 0.0168-0.0336 0.0336-0.135 0.118-2.25 2.46-3.7 4.05-5.11 4.44-0.32 0.0673-0.538 0-0.555-0.202-0.908-0.706-0.639-0.959 1.43-4.73 0.151-0.286 0.471-0.841 0.421-0.757 0.555-1.03-2.07 0.622-3.2-0.151-1.06-0.723-0.807-2.09 0.185-1.06 0.959-1.63 0.252-0.185 0.505-0.252 0.69-0.202 1.33 0.471 0.353 0.387 0.454 0.807 0.135 0.757-0.404 1.88 0.135-0.0336 0.488-0.168 0.841-0.303 1.08-0.303 0.791 0.0673 1.11 0.824 0.185 0.505-1.18 3.03-1.4 2.61-1.65 3.23-0.135 0.37-0.185 0.606 1.13-0.521 4.44-4.12 2.17-2.37 2.51-2.71zm-8.34-0.236q0.791-1.21 0.942-2.09-0.387 0.32-0.673 0.942-0.185 0.37-0.286 0.908-0.0168 0.185 0.0168 0.236z"/><path d="m410-221q0.0673-0.101 0.185-0.118 0.37 0 0.791 0.454 0.202 0.236 0.219 0.404 0 0.0505-0.0336 0.101-1.46 3.1-1.61 4.81-0.0168 0.151-0.0168 0.286 0 0.236 0.0673 0.488h0.0336q1.4 0 4.14-2.81 0.706-0.74 1.21-1.35 0.0505-0.0673 0.135-0.0673 0.286 0 0.606 0.505 0.168 0.269 0.168 0.471-0.0168 0.0841-0.0673 0.185-3.4 4.04-5.47 4.1-0.185 0-0.471-0.0673-0.807-0.236-1.24-0.959-0.286-0.471-0.286-1.21 0-1.78 1.65-5.23zm1.87-0.757q-0.0673 0.0841-0.185 0.101-0.37 0-0.774-0.437-0.202-0.252-0.219-0.421 0-0.0505 0.0336-0.118l1.4-2.24q0.0673-0.0841 0.202-0.0841 0.387 0 0.791 0.454 0.185 0.219 0.202 0.387 0 0.0505-0.0336 0.118z"/><path d="m417-219q0.387 0.336 0.404 0.521 0 0.118-0.32 0.269-0.185 0.0841-0.252 0.135 0.269 0.892 1.55 1.18 0.673-1.21 0.673-2.12 0-0.353-0.118-0.555-0.0505-0.0505-0.202-0.0505-0.757 0-1.41 0.353-0.219 0.135-0.32 0.269zm-1.4 0.118q0-0.0336-0.0168-0.101 0-0.0505 0-0.0841 0-1.01 1.11-1.4 0.454-0.168 0.976-0.168 1.21 0.0168 1.87 0.656 0.69 0.673 0.69 1.75 0 0.639-0.286 1.31 1.92-0.37 3.35-1.53 0.0673-0.0505 0.151-0.0505 0.353 0 0.706 0.471 0.168 0.219 0.185 0.387-0.0168 0.101-0.0841 0.151-2.09 1.68-4.37 1.68-0.32 0-0.471-0.0168-1.51 2.46-3.55 2.46-0.875 0-1.4-0.37-0.0336-0.0505-0.0505-0.0673-0.858-0.622-0.858-1.6 0-1.33 1.38-2.84 0.336-0.37 0.673-0.639zm0.622 1.38q-1.16 1.24-1.45 2.37-0.0336 0.185-0.0505 0.336-0.0168 0.303 0 0.387 0.236 0.101 0.488 0.101 1.04 0 2.27-1.36 0.236-0.269 0.437-0.538-1.04-0.488-1.7-1.3z"/><path d="m425-221q0.0673-0.0841 0.185-0.0841 0.37 0 0.774 0.437 0.202 0.252 0.219 0.421 0 0.0673-0.0336 0.118-1.35 1.9-1.9 3.58-0.236 0.706-0.236 1.21 0 0.118 0.0337 0.303 1.36-0.471 4.07-4 0.572-0.74 0.992-1.35 0.135-0.168 0.32-0.185 0.404 0 0.74 0.505 0.151 0.236 0.151 0.387-0.0168 0.0841-0.0505 0.135-0.454 1.38-0.706 2.99-0.0841 0.538-0.0841 0.892 0.0168 0.488 0.168 0.589 0.135 0.0841 0.387 0.0841 1.14 0 3.65-1.85 1.33-0.992 1.8-1.56 0.101-0.0841 0.168-0.0841 0.353 0 0.723 0.454 0.168 0.236 0.185 0.387-0.0168 0.0841-0.0505 0.135-0.992 1.21-2.66 2.29-1.83 1.18-3.18 1.18-0.706-0.0168-1.21-0.336-1.14-0.774-1.14-2.36v-0.236q-2.09 2.51-3.3 2.96-0.0336 0-0.0673 0.0168-0.151 0.0505-0.32 0.0505-0.673-0.0168-1.26-0.656-0.505-0.589-0.505-1.45 0-1.93 2.14-4.98z"/><path d="m438-222q0.0673-0.0336 0.135-0.0336 0.387 0 0.807 0.471 0.168 0.236 0.185 0.387-0.0168 0.118-0.0841 0.151-1.67 0.976-1.97 1.87-0.101 0.286-0.101 0.589 0.0168 0.74 0.639 1.98 2.41-1.03 5.03-1.63h0.0841q0.421 0 0.824 0.505 0.151 0.219 0.168 0.37-0.0337 0.135-0.151 0.168-3.08 0.706-5.45 1.8 0.0841 0.32 0.0841 0.555 0 1.24-2.09 2.2-0.0168 0.0168-0.0336 0.0168-0.757 0.336-1.09 0.336-0.673-0.0336-1.14-0.841-0.118-0.219-0.118-0.454 0.0168-1.19 3.1-2.67-0.824-1.58-0.959-1.97-0.185-0.538-0.185-0.959 0.0336-1.5 2.32-2.84zm-2.44 8.18q0.673-0.37 1.03-0.74-0.555 0.353-1.03 0.74z"/></g><g fill="#fff554" stroke="#fff554" stroke-linecap="round" stroke-linejoin="round"><path d="m99.7-202-29.2-20.1" stroke-width="3.83"/><path d="m95.5-191-34.6-7.87" stroke-width="6"/><path d="m115-211-29.6-29.4" stroke-width="7.07"/></g><path d="m106-155c-8.07-0.114-9.98 11.8 1.45 15.4-0.0121 0.0561-0.016 0.0974-0.0263 0.15-8.22 1.9-8.45 15 2.56 15.2-5.67 7.21 4.45 16.7 12.6 12.2-0.0438 6.06 10.6 10.9 15.2 3.15-0.0911 6.8 13.6 12.2 18.7-2.4-33.5-10.5-47.5-29.9-50.4-43.7z" fill="#ff6fbf"/><g transform="rotate(-20.5 475 -71.9)" fill="#fff554" stroke="#fff554" stroke-linecap="round" stroke-linejoin="round"><path d="m493-170 35.2 4.25" stroke-width="3.83"/><path d="m492-182 34.3-9.13" stroke-width="6"/><path d="m484-155 39.8 12.2" stroke-width="7.07"/></g><g fill="#fff"><path d="m238-124c-15.2 1.28-15.6-18.8-15-32.6 2.82 22.3 5.94 24.5 15 32.6z" opacity=".467"/><path d="m252-163c-6.38 11-5.78 31.9 10.9 28.8-15-8.74-11.7-18.6-10.9-28.8z" opacity=".467"/><path d="m257-125c0.298 11.7 5.25 14.4 13.5 15.1-7.11-3.21-11.6-8.45-13.5-15.1z" opacity=".467"/><path d="m315-130c-16.6 7.12-26.4-20.2-19.2-29.5 0.814-1.04 3.61-0.0115 3.74 1.3 1.27 12.1 1.63 28.2 15.5 28.2z" opacity=".467"/><path d="m349-133c-12.5 24.3-21.6-26.4-13.2-24.1 2.37 0.772 1.95 30.8 13.2 24.1z" opacity=".467"/><path d="m370-129c-8 3.57-6.84-6.74-7.81-14.2 2 7.42 3.9 13.7 7.81 14.2z" opacity=".467"/><path d="m384-159c-0.668 10.7 0.615 23.4 5.37 31.6-11.3-9.13-9.27-32.1-5.37-31.6z" opacity=".467"/><path d="m416-152c0.461 11.1 1.09 16.2 6.43 25.2-9.58-5.25-9.65-23.1-6.43-25.2z" opacity=".467"/></g></g></svg>
