<?xml version="1.0" encoding="UTF-8"?>
<svg width="586mm" height="200mm" version="1.1" viewBox="0 0 586 200" xmlns="http://www.w3.org/2000/svg"><g transform="translate(-26 274)"><g><rect x="26" y="-274" width="587" height="200" fill="#ffe0ee" stroke-width="4"/><path d="m185-170c15 0.6 13 18 3 19 17 2 9 21 2 21 11 12 0.1 26-13 19 3 11-14 16-17 6-6 18-22 11-22 3-5 9-18 4-18-4-9 5-21-6-15-15-13-0.3-13-16-3-19 2 0.9-0.9 4-0.03-0.2-13-4-11-19-2-19-5-6 3-15 11-14" fill="#ff1999"/><path d="m179-173c4 0.4 4 2 4 6-23 30-84 13-70-2" fill="#ffb7df"/><path d="m178-170c-0.8-23-21-45-41-42-18 3-29 34-23 50 18 14 59 5 64-8z" fill="#fff"/><circle cx="138" cy="-184" r="3" fill="#676767"/><circle cx="163" cy="-183" r="3" fill="#676767"/></g><path d="m146-183c-0.3 2 0.4 4 2 4 3 0.5 4-1 5-3" fill="none" stroke="#676767" stroke-linecap="round" stroke-linejoin="round" stroke-width=".9"/><g fill="#e7008e" stroke-width="3" aria-label="lychee"><path d="m240-129c-5-6-2-45-1-54 0-1-0.1-2-0.2-3-0.9-5-7-7-10-2-6 12-13 53-1 64 3 2 7 3 11 2 3-1 5-5 2-8z"/><path d="m246-143c3 12 16 15 23 4 2-2 3-5 4-7 0.2 4 0.1 12-2 18-2 4-6 9-8 2-0.5-2-2-3-3-3-2-0.1-3 0.6-4 2-1 3-0.8 6 0.1 9 4 13 21 12 27-1 5-11 1-28-0.9-37-2-7-8-7-10-0.9-2 4-3 7-4 9-12 22-8-9-2-17 3-4-3-8-9-5-8 4-13 17-10 27z"/><path d="m310-164c1-3 6-8 6-5 0.8 7 9 7 9-2 0.2-3-0.2-5-1-7-3-5-9-6-14-5-8 2-13 9-16 16-4 10-3 22 1 31 7 13 21 12 26-3 1-3 2-7 2-10 0.4-5-5-7-6-1-2 21-9 14-10 2-0.6-7-0.4-11 3-18z"/><path d="m349-130c0.9-2 3-23 8-19 5 3 3 14 5 20 2 6 11 5 10-0.4-1-7-0.5-15-4-23-4-8-13-8-18-2-4 5-4 5-4 1 0-10 0.2-19 1-30 0-9-8-9-11-2-3 7-7 35-3 51 1 4 4 10 9 10 3-0.2 6-2 7-6z"/><path d="m392-144c7 2 14-4 16-11 4-21-21-19-27-2-3 9-3 18 1 25 7 12 19 10 26-3 2-4-1-10-5-3-5 8-14 11-11-6zm1-6c0.5-5 5-14 8-13 4 5-0.2 13-8 13zm32 6c9 0.4 14-8 12-17-0.9-4-4-8-9-8-5 0.3-9 4-11 9-3 8-5 21-0.3 29 5 9 17 9 21-2 0.8-2 1-5 1-8 0.6-4-5-4-5-0.8-0.8 3-1 5-2 7-3 7-7-2-6-9zm0.5-7c1-4 3-8 5-11 4 3 2 11-5 11z"/></g><g fill="#a40b73" stroke-width=".9" aria-label="Introducing the glorious"><path d="m227-207h-0.03l-0.03 0.02q-0.4 0-0.8-0.5-0.2-0.2-0.2-0.4 0.03-0.1 0.2-0.2 0 0 0.2-0.03 3-0.4 5-0.6 0.5-4 7-20 0.6-2 1-3-0.6 0.08-1 0.2-0.7 0.08-1 0.2-0.5 0.07-0.9 0.1-0.4 0.05-0.6 0.08l-0.2 0.03h-0.07q-0.4 0-0.8-0.5-0.2-0.2-0.2-0.4 0.03-0.1 0.2-0.2 0 0 0.1-0.02 3-0.5 5-0.7 0.2-0.5 0.4-0.5 0.2 0.02 0.6 0.4 2-0.2 3-0.2 0.6 0 0.8 0.03 0.8 0.1 1 0.7 0.1 0.2 0.1 0.3-0.03 0.2-0.2 0.2h-0.03q-0.05 0-0.2-0.03-0.5-0.1-1-0.1h-0.05q-1 0.03-4 0.3-6 14-8 21-0.4 1-0.5 2 2-0.2 3-0.2 0.4 0 0.9 0.07 0.7 0.1 1 0.8 0.1 0.2 0.1 0.3-0.02 0.07-0.05 0.08-0.03-0.02-0.07-0.03-0.3-0.2-1-0.2-1 0-4 0.3-0.03 0.4-0.3 0.4-0.3-0.02-0.6-0.3-0.6 0.08-1 0.2-0.7 0.1-1 0.2-0.5 0.07-1 0.1-0.4 0.07-0.7 0.1z"/><path d="m242-220q0.07-0.08 0.2-0.1 0.4 0 0.8 0.5 0.2 0.2 0.2 0.4 0 0.05-0.03 0.1-0.02 0.03-2 3 3-3 4-4 0.1-0.05 0.2-0.08 0.2-0.05 0.4-0.05 0.8 0.02 1 0.7 0.4 0.5 0.4 2 0 0.4-0.2 2-0.02 0.2-0.02 0.3 0 0.1 0.03 0.1 0.03 0.02 0.05 0.02 0.6 0 4-3 0.5-0.4 0.6-0.5 0.05-0.03 0.1-0.03 0.3 0 0.6 0.5 0.2 0.3 0.2 0.5-0.02 0.1-0.08 0.2-2 1-2 2-2 1-3 1-0.6-0.02-1-0.3-0.8-0.6-0.8-2 0-0.4 0.07-1 0.07-0.7 0.07-1v-0.2q-1 0.3-4 3-2 2-3 3-0.6 0.5-0.8 0.5-1-0.08-1-0.9 0-0.4 3-7z"/><path d="m258-232q0.1-0.3 0.6 0.02 0.07 0.03 0.1 0.05 0.5 0.3 0.5 0.7-0.02 0.05-0.02 0.08 0 0-0.2 0.5-1 3-2 5 10-1 13 0.8 0.5 0.2 0.6 0.6 0.02 0.05 0.03 0.08 0.05 0.3-0.2 0.3-0.1-0.02-0.3-0.08-4-2-14-0.5-0.4 1-1 4-3 9-4 13-0.5 2-0.4 3 0.02 0.3-0.4 0.2-0.1-0.03-0.2-0.08-0.5-0.2-0.6-0.6-0.02-0.07-0.02-0.1-0.2-2 3-11 0.4-1 1-4 0.9-3 1-4-1 0.2-3 0.4-1 0.2-2 0.4-1 0.2-2 0.4-0.9 0.2-1 0.3l-0.5 0.08q-0.3 0.08-0.8-0.4-0.05-0.05-0.08-0.08-0.03-0.05-0.07-0.08-0.05-0.05-0.07-0.1-0.03-0.05-0.05-0.08-0.02-0.03-0.02-0.07-0.02-0.05-0.02-0.08t0.02-0.05q0-0.03 0.03-0.05 0.02-0.03 0.05-0.05 0.02-0.02 0.05-0.02 0 0 0.2-0.03 5-1 10-2 0.6-2 1-3 0.6-2 0.9-3z"/><path d="m266-218q0.2-0.2 0.7 0.2 0.4 0.5 0.3 0.7-0.03 0.02-0.03 0.03-0.1 0.1-2 2-4 4-5 4-0.3 0.07-0.5 0-0.6-0.2-0.9-0.7-0.6-1 1-5 0.2-0.3 0.5-0.8 0.4-0.8 0.6-1-2 0.6-3-0.2-1-0.7-0.8-2 0.2-1 1-2 0.3-0.2 0.5-0.3 0.7-0.2 1 0.5 0.4 0.4 0.5 0.8 0.1 0.8-0.4 2 0.1-0.03 0.5-0.2 0.8-0.3 1-0.3 0.8 0.07 1 0.8 0.2 0.5-1 3-1 3-2 3-0.1 0.4-0.2 0.6 1-0.5 4-4 2-2 3-3zm-8-0.2q0.8-1 0.9-2-0.4 0.3-0.7 0.9-0.2 0.4-0.3 0.9-0.02 0.2 0.02 0.2z"/><path d="m268-219q0.4 0.3 0.4 0.5 0 0.1-0.3 0.3-0.2 0.08-0.3 0.1 0.3 0.9 2 1 0.7-1 0.7-2 0-0.4-0.1-0.6-0.05-0.05-0.2-0.05-0.8 0-1 0.4-0.2 0.1-0.3 0.3zm-1 0.1q0-0.03-0.02-0.1 0-0.05 0-0.08 0-1 1-1 0.5-0.2 1-0.2 1 0.02 2 0.7 0.7 0.7 0.7 2 0 0.6-0.3 1 2-0.4 3-2 0.07-0.05 0.2-0.05 0.4 0 0.7 0.5 0.2 0.2 0.2 0.4-0.02 0.1-0.08 0.2-2 2-4 2-0.3 0-0.5-0.02-2 2-4 2-0.9 0-1-0.4-0.03-0.05-0.05-0.07-0.9-0.6-0.9-2 0-1 1-3 0.3-0.4 0.7-0.6zm0.6 1q-1 1-1 2-0.03 0.2-0.05 0.3-0.02 0.3 0 0.4 0.2 0.1 0.5 0.1 1 0 2-1 0.2-0.3 0.4-0.5-1-0.5-2-1z"/><path d="m281-220q-0.02-0.02-0.07-0.05-0.03-0.02-0.05-0.03-0.07 0.1-0.3 0.5-2 4-3 5-0.8 0.7-1 0.7-0.4-0.02-0.8-0.3-0.9-0.8-1-2 0-0.8 0.3-2 0.8-2 2-3 0.7-0.4 2-0.4 0.7 0 2 0.3 2-4 5-10l0.03-0.05q0.07-0.1 0.2-0.1 0.4 0 0.8 0.4 0.3 0.3 0.2 0.5-3 6-5 13-2 7-2 9 0 0.1 0.03 0.3 0.02 0.1 0.02 0.2-0.03 0.2-0.2 0.2-0.4 0-0.8-0.4-0.2-0.2-0.2-0.4-0.03-0.2-0.03-0.5 0-2 3-10 0.2-0.5 0.4-1zm-1-0.6q-0.2-0.03-0.3-0.03-1 0-3 2-1 1-1 3-0.02 0.2-0.02 0.3 0 0.4 0.1 0.6 1-0.4 4-5z"/><path d="m286-221q0.07-0.08 0.2-0.08 0.4 0 0.8 0.4 0.2 0.3 0.2 0.4 0 0.07-0.03 0.1-1 2-2 4-0.2 0.7-0.2 1 0 0.1 0.03 0.3 1-0.5 4-4 0.6-0.7 1-1 0.1-0.2 0.3-0.2 0.4 0 0.7 0.5 0.2 0.2 0.2 0.4-0.02 0.08-0.05 0.1-0.5 1-0.7 3-0.08 0.5-0.08 0.9 0.02 0.5 0.2 0.6 0.1 0.08 0.4 0.08 1 0 4-2 1-1 2-2 0.1-0.08 0.2-0.08 0.4 0 0.7 0.5 0.2 0.2 0.2 0.4-0.02 0.08-0.05 0.1-1 1-3 2-2 1-3 1-0.7-0.02-1-0.3-1-0.8-1-2v-0.2q-2 3-3 3-0.03 0-0.07 0.02-0.2 0.05-0.3 0.05-0.7-0.02-1-0.7-0.5-0.6-0.5-1 0-2 2-5z"/><path d="m302-218q-0.08 0.2-0.2 0.2-0.4 0-0.8-0.5-0.2-0.3-0.2-0.5l0.2-0.7q-1 0.2-2 2-1 2-2 3-0.05 0.2-0.05 0.4 0.02 0.4 0.2 0.7 0.2 0.05 0.4 0.05 2 0 6-3 0.4-0.2 1-0.7 1-0.7 1-1 0.08-0.05 0.1-0.05 0.4 0 0.8 0.5 0.2 0.2 0.2 0.4-0.02 0.1-0.08 0.2-0.4 0.3-2 1-3 2-5 3-1 0.5-2 0.5-0.2 0-0.4-0.03-1-0.2-2-1-0.3-0.5-0.4-1-0.02-0.1-0.02-0.3 0-1 1-3 1-2 3-2 0.5-0.2 0.8-0.2 0.9 0.02 1 0.8 0.2 0.3 0.2 0.6 0 0.3-0.3 1-0.03 0.08-0.05 0.1z"/><path d="m307-221q0.07-0.1 0.2-0.1 0.4 0 0.8 0.5 0.2 0.2 0.2 0.4 0 0.05-0.03 0.1-1 3-2 5-0.02 0.2-0.02 0.3 0 0.2 0.07 0.5h0.03q1 0 4-3 0.7-0.7 1-1 0.05-0.07 0.1-0.07 0.3 0 0.6 0.5 0.2 0.3 0.2 0.5-0.02 0.08-0.07 0.2-3 4-5 4-0.2 0-0.5-0.07-0.8-0.2-1-1-0.3-0.5-0.3-1 0-2 2-5zm2-0.8q-0.07 0.08-0.2 0.1-0.4 0-0.8-0.4-0.2-0.3-0.2-0.4 0-0.05 0.03-0.1l1-2q0.07-0.08 0.2-0.08 0.4 0 0.8 0.5 0.2 0.2 0.2 0.4 0 0.05-0.03 0.1z"/><path d="m313-220q0.07-0.08 0.2-0.1 0.4 0 0.8 0.5 0.2 0.2 0.2 0.4 0 0.05-0.03 0.1-0.02 0.03-2 3 3-3 4-4 0.1-0.05 0.2-0.08 0.2-0.05 0.4-0.05 0.8 0.02 1 0.7 0.4 0.5 0.4 2 0 0.4-0.2 2-0.02 0.2-0.02 0.3 0 0.1 0.03 0.1 0.03 0.02 0.05 0.02 0.6 0 4-3 0.5-0.4 0.6-0.5 0.05-0.03 0.1-0.03 0.3 0 0.6 0.5 0.2 0.3 0.2 0.5-0.02 0.1-0.08 0.2-2 1-2 2-2 1-3 1-0.6-0.02-1-0.3-0.8-0.6-0.8-2 0-0.4 0.07-1 0.07-0.7 0.07-1v-0.2q-1 0.3-4 3-2 2-3 3-0.6 0.5-0.8 0.5-1-0.08-1-0.9 0-0.4 3-7z"/><path d="m328-220q0.3 0.07 0.6 0.3 0.2-0.3 0.5-0.8 0.3-0.5 1 0.2 0.2 0.2 0.3 0.4 0.4 0.7-0.5 4-0.07 0.2-0.1 0.5 2-1 3-2 0.7-0.4 1-0.6 0.3-0.2 0.7 0.2 0.05 0.05 0.08 0.08 0.4 0.4 0.3 0.6-0.03 0.03-0.05 0.05-0.4 0.2-1 0.6-3 2-5 3-2 6-4 10-0.8 1-1 2-2 2-4 0.4-5-4 8-12 0.2-0.1 0.6-0.4 0.8-2 1-4-2 3-4 4-1 0.5-2-0.7-0.1-0.3-0.2-0.7-0.4-2 1-3 1-1 3-1 0.5-0.02 1 0.05zm0.08 1q-1-0.07-3 0.9-1 1-1 2 0 0.2 0.05 0.5 0.1 0.5 3-3 0.6-0.6 0.7-0.8zm-6 16q2-2 5-9 0.1-0.3 0.3-0.7-6 4-7 7-1 2 0.4 3l0.07 0.07q0.5 0.3 1-0.5 0.2-0.2 0.4-0.4z"/><path d="m358-218q0.3-0.2 0.8 0.3 0.5 0.4 0.3 0.7-0.02 0.03-0.03 0.03-0.2 0.1-0.6 0.4-2 2-4 2-2 0.5-3-0.4-0.8-0.8-0.9-3-0.02-0.1-0.03-0.6-1 0.7-3 4-2 3-2 3-0.2 0.3-0.4 0.5-0.4 0.3-1-0.2-0.4-0.4-0.4-0.9 0.1-2 5-14-1 0.8-3 1-6 17-6 20 0.02 0.3-0.4 0.2-0.1-0.03-0.2-0.08-0.5-0.2-0.6-0.6-0.02-0.07-0.02-0.1-0.2-3 5-19-4 1-9 2-0.2 0.03-0.3 0.03-0.4 0.05-0.8-0.4-0.03-0.05-0.07-0.08-0.05-0.07-0.08-0.1-0.05-0.07-0.07-0.1-0.03-0.07-0.03-0.1 0-0.05 0.02-0.08t0.07-0.07q0.03-0.03 0.08-0.03 0.4 0 3-0.5 5-0.9 8-2 0.5-1 1-3 0.5-1 0.8-2l0.3-0.7q0.1-0.3 0.6 0.02 0.07 0.03 0.1 0.07 0.5 0.3 0.5 0.7-0.02 0.05-0.02 0.08-0.02-0.02-1 4 2-1 3-2 0.2-0.6 0.4-1 0.2-0.5 0.3-0.8 0.1-0.3 0.2-0.5l0.07-0.2q0.1-0.3 0.7 0.07 0.2 0.1 0.3 0.3 0.1 0.05 0.3 0.2 0.5 0.4 0.5 0.7-0.02 0.02-0.02 0.03-0.4 1-2 2-3 9-5 14 0.2-0.3 0.7-0.9 2-3 3-4 0.2-0.1 0.3-0.2 0.6-0.4 1-0.1 1 0.6 1 2 0.03 0.2 0.05 0.7 0.08 1 0.3 1 1 0.07 5-2z"/><path d="m359-215q-0.3 0.1-0.3 0.8 0.02 0.6 0.3 0.7 0.3 0.1 0.7 0.1 2 0 6-3 1-0.7 2-1 0.07-0.05 0.1-0.05 0.3 0 0.7 0.5 0.2 0.3 0.2 0.5-0.02 0.1-0.07 0.2-0.4 0.4-2 1-4 3-6 3-0.3 0-0.4-0.02-2-0.3-2-2-0.03-0.2-0.03-0.4 0-2 1-3 1-2 2-2 0.3-0.08 0.5-0.1h0.07q0.8 0 1 0.7 0.4 0.5 0.4 0.9-0.02 0.3-0.2 0.6-0.2 0.3-0.5 0.6-0.3 0.3-0.8 0.6-0.4 0.3-0.9 0.5-0.5 0.3-0.9 0.5-0.4 0.2-0.8 0.4-0.3 0.2-0.5 0.2zm0.9-2q2-1 3-2-1 0.3-2 2-0.2 0.2-0.3 0.4z"/><path d="m380-220q0.3 0.07 0.6 0.3 0.2-0.3 0.5-0.8 0.3-0.5 1 0.2 0.2 0.2 0.3 0.4 0.4 0.7-0.5 4-0.07 0.2-0.1 0.5 2-1 3-2 0.7-0.4 1-0.6 0.3-0.2 0.7 0.2 0.05 0.05 0.08 0.08 0.4 0.4 0.3 0.6-0.03 0.03-0.05 0.05-0.4 0.2-1 0.6-3 2-5 3-2 6-4 10-0.8 1-1 2-2 2-4 0.4-5-4 8-12 0.2-0.1 0.6-0.4 0.8-2 1-4-2 3-4 4-1 0.5-2-0.7-0.1-0.3-0.2-0.7-0.4-2 1-3 1-1 3-1 0.5-0.02 1 0.05zm0.08 1q-1-0.07-3 0.9-1 1-1 2 0 0.2 0.05 0.5 0.1 0.5 3-3 0.6-0.6 0.7-0.8zm-6 16q2-2 5-9 0.1-0.3 0.3-0.7-6 4-7 7-1 2 0.4 3l0.07 0.07q0.5 0.3 1-0.5 0.2-0.2 0.4-0.4z"/><path d="m393-218q0.08-0.05 0.2-0.05 0.4 0 0.7 0.5 0.2 0.2 0.2 0.4-0.02 0.1-0.05 0.2-0.8 0.6-4 4-3 3-4 4-0.6 0.5-0.8 0.5h-0.1q-1-0.03-1-2 0-3 6-17 0.2-0.4 0.4-1 1-3 1-3 0.07-0.1 0.2-0.1 0.4 0 0.8 0.4 0.2 0.2 0.2 0.4 0 0.4-0.8 2-0.3 0.7-0.5 1-4 10-5 14-0.6 2-0.6 3 1-0.8 4-4 3-3 3-4 0.3-0.3 0.5-0.5z"/><path d="m395-219q0.4 0.3 0.4 0.5 0 0.1-0.3 0.3-0.2 0.08-0.3 0.1 0.3 0.9 2 1 0.7-1 0.7-2 0-0.4-0.1-0.6-0.05-0.05-0.2-0.05-0.8 0-1 0.4-0.2 0.1-0.3 0.3zm-1 0.1q0-0.03-0.02-0.1 0-0.05 0-0.08 0-1 1-1 0.5-0.2 1-0.2 1 0.02 2 0.7 0.7 0.7 0.7 2 0 0.6-0.3 1 2-0.4 3-2 0.07-0.05 0.2-0.05 0.4 0 0.7 0.5 0.2 0.2 0.2 0.4-0.02 0.1-0.08 0.2-2 2-4 2-0.3 0-0.5-0.02-2 2-4 2-0.9 0-1-0.4-0.03-0.05-0.05-0.07-0.9-0.6-0.9-2 0-1 1-3 0.3-0.4 0.7-0.6zm0.6 1q-1 1-1 2-0.03 0.2-0.05 0.3-0.02 0.3 0 0.4 0.2 0.1 0.5 0.1 1 0 2-1 0.2-0.3 0.4-0.5-1-0.5-2-1z"/><path d="m409-218q0.2-0.2 0.7 0.2 0.4 0.5 0.3 0.7-0.03 0.02-0.03 0.03-0.1 0.1-2 2-4 4-5 4-0.3 0.07-0.5 0-0.6-0.2-0.9-0.7-0.6-1 1-5 0.2-0.3 0.5-0.8 0.4-0.8 0.6-1-2 0.6-3-0.2-1-0.7-0.8-2 0.2-1 1-2 0.3-0.2 0.5-0.3 0.7-0.2 1 0.5 0.4 0.4 0.5 0.8 0.1 0.8-0.4 2 0.1-0.03 0.5-0.2 0.8-0.3 1-0.3 0.8 0.07 1 0.8 0.2 0.5-1 3-1 3-2 3-0.1 0.4-0.2 0.6 1-0.5 4-4 2-2 3-3zm-8-0.2q0.8-1 0.9-2-0.4 0.3-0.7 0.9-0.2 0.4-0.3 0.9-0.02 0.2 0.02 0.2z"/><path d="m410-221q0.07-0.1 0.2-0.1 0.4 0 0.8 0.5 0.2 0.2 0.2 0.4 0 0.05-0.03 0.1-1 3-2 5-0.02 0.2-0.02 0.3 0 0.2 0.07 0.5h0.03q1 0 4-3 0.7-0.7 1-1 0.05-0.07 0.1-0.07 0.3 0 0.6 0.5 0.2 0.3 0.2 0.5-0.02 0.08-0.07 0.2-3 4-5 4-0.2 0-0.5-0.07-0.8-0.2-1-1-0.3-0.5-0.3-1 0-2 2-5zm2-0.8q-0.07 0.08-0.2 0.1-0.4 0-0.8-0.4-0.2-0.3-0.2-0.4 0-0.05 0.03-0.1l1-2q0.07-0.08 0.2-0.08 0.4 0 0.8 0.5 0.2 0.2 0.2 0.4 0 0.05-0.03 0.1z"/><path d="m417-219q0.4 0.3 0.4 0.5 0 0.1-0.3 0.3-0.2 0.08-0.3 0.1 0.3 0.9 2 1 0.7-1 0.7-2 0-0.4-0.1-0.6-0.05-0.05-0.2-0.05-0.8 0-1 0.4-0.2 0.1-0.3 0.3zm-1 0.1q0-0.03-0.02-0.1 0-0.05 0-0.08 0-1 1-1 0.5-0.2 1-0.2 1 0.02 2 0.7 0.7 0.7 0.7 2 0 0.6-0.3 1 2-0.4 3-2 0.07-0.05 0.2-0.05 0.4 0 0.7 0.5 0.2 0.2 0.2 0.4-0.02 0.1-0.08 0.2-2 2-4 2-0.3 0-0.5-0.02-2 2-4 2-0.9 0-1-0.4-0.03-0.05-0.05-0.07-0.9-0.6-0.9-2 0-1 1-3 0.3-0.4 0.7-0.6zm0.6 1q-1 1-1 2-0.03 0.2-0.05 0.3-0.02 0.3 0 0.4 0.2 0.1 0.5 0.1 1 0 2-1 0.2-0.3 0.4-0.5-1-0.5-2-1z"/><path d="m425-221q0.07-0.08 0.2-0.08 0.4 0 0.8 0.4 0.2 0.3 0.2 0.4 0 0.07-0.03 0.1-1 2-2 4-0.2 0.7-0.2 1 0 0.1 0.03 0.3 1-0.5 4-4 0.6-0.7 1-1 0.1-0.2 0.3-0.2 0.4 0 0.7 0.5 0.2 0.2 0.2 0.4-0.02 0.08-0.05 0.1-0.5 1-0.7 3-0.08 0.5-0.08 0.9 0.02 0.5 0.2 0.6 0.1 0.08 0.4 0.08 1 0 4-2 1-1 2-2 0.1-0.08 0.2-0.08 0.4 0 0.7 0.5 0.2 0.2 0.2 0.4-0.02 0.08-0.05 0.1-1 1-3 2-2 1-3 1-0.7-0.02-1-0.3-1-0.8-1-2v-0.2q-2 3-3 3-0.03 0-0.07 0.02-0.2 0.05-0.3 0.05-0.7-0.02-1-0.7-0.5-0.6-0.5-1 0-2 2-5z"/><path d="m438-222q0.07-0.03 0.1-0.03 0.4 0 0.8 0.5 0.2 0.2 0.2 0.4-0.02 0.1-0.08 0.2-2 1-2 2-0.1 0.3-0.1 0.6 0.02 0.7 0.6 2 2-1 5-2h0.08q0.4 0 0.8 0.5 0.2 0.2 0.2 0.4-0.03 0.1-0.2 0.2-3 0.7-5 2 0.08 0.3 0.08 0.6 0 1-2 2-0.02 0.02-0.03 0.02-0.8 0.3-1 0.3-0.7-0.03-1-0.8-0.1-0.2-0.1-0.5 0.02-1 3-3-0.8-2-1-2-0.2-0.5-0.2-1 0.03-1 2-3zm-2 8q0.7-0.4 1-0.7-0.6 0.4-1 0.7z"/></g><g fill="#fff554" stroke="#fff554" stroke-linecap="round" stroke-linejoin="round"><path d="m100-202-29-20" stroke-width="4"/><path d="m96-191-35-8" stroke-width="6"/><path d="m115-211-30-29" stroke-width="7"/></g><path d="m106-155c-8-0.1-10 12 1 15-0.01 0.06-0.02 0.1-0.03 0.2-8 2-8 15 3 15-6 7 4 17 13 12-0.04 6 11 11 15 3-0.09 7 14 12 19-2-33-11-47-30-50-44z" fill="#ff6fbf"/><g transform="rotate(-21 475 -72)" fill="#fff554" stroke="#fff554" stroke-linecap="round" stroke-linejoin="round"><path d="m493-170 35 4" stroke-width="4"/><path d="m492-182 34-9" stroke-width="6"/><path d="m484-155 40 12" stroke-width="7"/></g><g fill="#fff"><path d="m238-124c-15 1-16-19-15-33 3 22 6 24 15 33z" opacity=".5"/><path d="m252-163c-6 11-6 32 11 29-15-9-12-19-11-29z" opacity=".5"/><path d="m257-125c0.3 12 5 14 14 15-7-3-12-8-14-15z" opacity=".5"/><path d="m315-130c-17 7-26-20-19-29 0.8-1 4-0.01 4 1 1 12 2 28 15 28z" opacity=".5"/><path d="m349-133c-12 24-22-26-13-24 2 0.8 2 31 13 24z" opacity=".5"/><path d="m370-129c-8 4-7-7-8-14 2 7 4 14 8 14z" opacity=".5"/><path d="m384-159c-0.7 11 0.6 23 5 32-11-9-9-32-5-32z" opacity=".5"/><path d="m416-152c0.5 11 1 16 6 25-10-5-10-23-6-25z" opacity=".5"/></g></g></svg>
