<?xml version="1.0" encoding="UTF-8" standalone="no"?>
<svg
   width="330px"
   height="150px"
   viewBox="0 0 263.52557 94.962"
   version="1.1"
   id="svg8"
   xmlns:xlink="http://www.w3.org/1999/xlink"
   xmlns="http://www.w3.org/2000/svg"
   xmlns:svg="http://www.w3.org/2000/svg"
   xmlns:rdf="http://www.w3.org/1999/02/22-rdf-syntax-ns#"
   xmlns:cc="http://creativecommons.org/ns#"
   xmlns:dc="http://purl.org/dc/elements/1.1/">
  <defs
     id="defs2">
    <linearGradient
       id="linearGradient1285">
      <stop
         style="stop-color:#ffffff;stop-opacity:1;"
         offset="0"
         id="stop1283" />
    </linearGradient>
    <linearGradient
       xlink:href="#linearGradient1285"
       id="linearGradient1287"
       x1="86.986099"
       y1="90.381439"
       x2="152.51767"
       y2="90.381439"
       gradientUnits="userSpaceOnUse" />
    <filter
       style="color-interpolation-filters:sRGB"
       id="filter2949"
       x="-0.10629625"
       y="-0.10730813"
       width="1.1942807"
       height="1.2093191">
      <feFlood
         flood-opacity="0.498039"
         flood-color="rgb(0,0,0)"
         result="flood"
         id="feFlood2939" />
      <feComposite
         in="flood"
         in2="SourceGraphic"
         operator="in"
         result="composite1"
         id="feComposite2941" />
      <feGaussianBlur
         in="composite1"
         stdDeviation="2.4024"
         result="blur"
         id="feGaussianBlur2943" />
      <feOffset
         dx="-1.2"
         dy="-0.299401"
         result="offset"
         id="feOffset2945" />
      <feComposite
         in="SourceGraphic"
         in2="offset"
         operator="over"
         result="composite2"
         id="feComposite2947" />
    </filter>
  </defs>
  <metadata
     id="metadata5">
    <rdf:RDF>
      <cc:Work
         rdf:about="">
        <dc:format>image/svg+xml</dc:format>
        <dc:type
           rdf:resource="http://purl.org/dc/dcmitype/StillImage" />
      </cc:Work>
    </rdf:RDF>
  </metadata>
  <g
     id="g3564"
     transform="matrix(0.76517019,0,0,0.76517019,-51.660188,-42.892218)">
    <path
       id="path871"
       style="fill:#ff1999;fill-opacity:1;stroke:none;stroke-width:0.25551px;stroke-linecap:butt;stroke-linejoin:miter;stroke-opacity:1"
       d="m 159.59066,103.82924 c 14.99116,0.64148 12.92677,17.69491 2.96101,19.20702 16.93678,2.36528 9.15018,21.4697 1.70316,21.06358 10.64644,11.65275 0.0968,26.02163 -12.70168,19.21259 2.90666,10.61599 -13.74135,16.18912 -17.34781,5.58646 -5.9185,17.7452 -21.96429,11.1921 -21.85763,2.91495 -5.40706,9.44335 -17.811467,3.55048 -17.760227,-3.82699 -9.48579,5.41893 -21.331274,-6.09625 -14.69728,-14.86733 -12.918854,-0.31192 -12.613544,-16.263 -2.94088,-18.52235 2.24638,0.91287 -0.91387,4.11833 -0.0264,-0.16724 -13.374104,-4.32888 -11.146094,-18.82497 -1.69642,-18.68607 -4.509104,-6.34808 2.8269,-15.13412 10.7949,-14.23361" />
    <path
       id="path833"
       style="fill:url(#linearGradient1287);fill-opacity:1;stroke:none;stroke-width:0.264583px;stroke-linecap:butt;stroke-linejoin:miter;stroke-opacity:1;filter:url(#filter2949)"
       d="M 152.51767,103.85791 C 151.75029,81.0197 138.01643,62.17493 120.09727,62.12108 94.720993,62.04478 82.401383,95.31936 88.545293,111.45584 c 17.672797,13.96638 58.792787,5.47239 63.972377,-7.59793 z" />
    <circle
       style="fill:#676767;fill-opacity:1;stroke:none;stroke-width:3.43958;stroke-opacity:1"
       id="path885"
       cx="111.76191"
       cy="89.683678"
       r="2.5224922" />
    <circle
       style="fill:#676767;fill-opacity:1;stroke:none;stroke-width:3.43958;stroke-opacity:1"
       id="path887"
       cx="137.11961"
       cy="90.613029"
       r="2.9207804" />
    <path
       id="path889"
       style="fill:none;stroke:#676767;stroke-width:0.948181;stroke-linecap:round;stroke-linejoin:round;stroke-miterlimit:4;stroke-dasharray:none;stroke-opacity:1"
       d="m 120.21103,91.51671 c -0.25275,1.95289 0.36798,3.81019 2.1354,4.17244 2.62743,0.53852 3.65985,-1.30863 4.57608,-3.44058" />
    <path
       id="path1651"
       style="fill:#ff6fbf;fill-opacity:1;stroke:none;stroke-width:0.809318px;stroke-linecap:butt;stroke-linejoin:miter;stroke-opacity:1"
       d="m 301.60352,449.5 c -30.5149,-0.43155 -37.71114,44.60524 5.47656,58.05469 -0.0457,0.21203 -0.0607,0.36812 -0.0996,0.56836 -31.05057,7.176 -31.95004,56.53285 9.68359,57.5 -21.42247,27.25096 16.82743,63.02757 47.45899,46.1914 -0.16555,22.92117 39.89105,41.22832 57.35156,11.88867 -0.3225,24.08701 45.1125,43.47423 66.57617,0.53126 -20.50406,7.64113 -42.99588,-5.58274 -42.77148,-20.95313 -17.01914,26.23332 -56.06373,9.86156 -55.90235,-10.63281 -29.85747,15.05367 -67.14286,-16.93493 -46.26172,-41.30078 -40.58216,-0.86473 -39.70285,-44.99695 -9.43554,-51.41211 0.038,-0.17834 0.0514,-0.31718 0.0957,-0.50586 -33.24426,-9.49675 -35.85647,-36.6044 -20.83789,-47.39649 -3.79088,-0.84926 -7.52035,-1.66885 -11.33398,-2.5332 z m 212.4746,145.68359 c -0.13247,0.35056 -0.27253,0.68555 -0.4082,1.0293 0.20529,-0.19536 0.39274,-0.38536 0.5957,-0.58008 -0.0614,-0.15105 -0.12834,-0.29573 -0.1875,-0.44922 z"
       transform="scale(0.26458333)" />
    <g
       id="g3303"
       transform="rotate(0.06907109,303.56668,124.33535)">
      <g
         aria-label="lychee"
         id="text850"
         style="font-size:108.204px;line-height:1.25;font-family:'Fresh Lychee';-inkscape-font-specification:'Fresh Lychee, Normal';fill:#e7008e;stroke-width:2.7051"
         transform="translate(-25.769247,274.09113)">
        <path
           d="m 240.25481,-129.1122 c -5.19379,-5.62661 -1.51485,-45.01287 -1.19024,-53.77739 0,-1.19024 -0.10821,-2.27228 -0.21641,-3.46253 -0.86563,-5.19379 -7.46608,-6.60044 -10.06297,-1.51485 -6.16763,12.11884 -13.3091,53.01996 -1.29845,64.16497 2.92151,2.48869 7.24967,3.46253 10.7122,2.16408 3.13791,-1.40665 4.76097,-5.4102 2.05587,-7.57428 z"
           id="path5637" />
        <path
           d="m 246.45794,-142.96231 c 2.92151,11.57782 15.90599,15.14856 23.04746,3.89534 1.51485,-2.27228 2.8133,-4.86918 4.00354,-7.24967 0.21641,4.43637 0.10821,12.44346 -2.05587,18.17827 -1.51486,4.00355 -5.73481,9.08914 -7.89889,2.4887 -0.54102,-1.73127 -1.73127,-2.81331 -3.46253,-3.02972 -2.05588,-0.1082 -3.46253,0.64923 -4.32816,2.05588 -1.40665,2.8133 -0.75743,6.05942 0.1082,9.08914 3.78714,12.76807 21.42439,11.68603 27.051,-0.97384 4.65278,-10.60399 1.08204,-28.24124 -0.86563,-37.43858 -1.73126,-7.35788 -7.89889,-6.70865 -9.95477,-0.86564 -1.51485,3.57074 -3.13791,6.60045 -4.43636,8.87273 -12.33526,21.5326 -8.0071,-8.87273 -1.94767,-17.31264 2.9215,-4.32816 -3.13792,-8.33171 -9.41375,-5.08559 -8.1153,3.89535 -12.55167,17.09624 -9.84657,27.37562 z"
           id="path5639" />
        <path
           d="m 310.31014,-164.2785 c 1.40666,-3.02971 5.51841,-8.22351 5.84302,-5.19379 0.75743,6.81685 8.65632,7.03326 9.30554,-2.27229 0.21641,-2.8133 -0.2164,-4.97738 -1.29844,-6.70865 -2.92151,-4.65277 -8.54812,-5.73481 -13.85012,-4.54456 -7.79068,1.73126 -13.41729,8.87272 -16.2306,16.447 -3.78714,9.95477 -3.35432,22.18182 1.40665,31.37916 6.81686,12.98448 21.4244,12.33526 26.29358,-2.59689 1.08204,-3.35433 1.73126,-6.81685 2.05587,-9.73836 0.43282,-5.302 -5.08558,-6.92506 -6.38403,-1.08204 -1.94767,20.55876 -8.76453,14.28293 -10.06297,2.27228 -0.64923,-6.70865 -0.43282,-10.8204 2.9215,-17.96186 z"
           id="path5641" />
        <path
           d="m 349.39207,-129.97783 c 0.86564,-2.16408 3.24612,-22.50644 8.22351,-19.26032 5.19379,3.46253 2.59689,14.28293 4.54457,19.69313 2.27228,6.16763 10.8204,5.302 9.84656,-0.43281 -1.29845,-7.46608 -0.54102,-15.25677 -3.78714,-22.50644 -3.57073,-7.89889 -12.55166,-8.43991 -17.63725,-2.27228 -4.11175,4.97738 -4.21996,5.302 -4.32816,0.97384 0,-9.84657 0.21641,-19.47672 1.08204,-29.86431 0,-9.08914 -8.0071,-9.30554 -11.46963,-1.51485 -3.24612,7.46607 -7.46607,35.3827 -2.9215,51.3969 1.29844,4.32816 3.57073,10.38758 9.30554,9.73836 2.92151,-0.21641 5.84302,-2.38049 7.14146,-5.95122 z"
           id="path5643" />
        <path
           d="m 391.5426,-144.47717 c 6.92505,2.38049 14.49933,-3.78714 15.68958,-10.8204 3.89534,-20.77517 -20.66697,-19.36852 -26.9428,-2.48869 -3.13792,8.54811 -2.5969,18.17827 1.29845,24.99512 6.70865,11.79424 18.61109,9.84657 25.64435,-2.7051 2.48869,-4.32816 -1.08204,-10.38758 -4.76098,-3.35432 -4.54457,7.89889 -13.95831,11.03681 -10.9286,-5.62661 z m 1.08204,-6.38404 c 0.54102,-5.4102 4.76097,-14.06652 7.89889,-13.20088 4.32816,4.65277 -0.21641,12.55166 -7.89889,13.20088 z m 31.92018,6.16763 c 8.65632,0.43282 13.6337,-8.43991 11.79423,-16.77162 -0.86563,-3.89534 -3.57073,-8.43991 -8.87272,-8.33171 -4.97739,0.32462 -9.41375,4.00355 -11.46963,8.87273 -3.46253,7.79069 -4.65277,20.88337 -0.32461,28.78227 4.86918,9.08913 16.98803,9.08913 20.55876,-2.27229 0.75743,-2.48869 1.19024,-5.30199 1.40665,-7.79069 0.64923,-4.11175 -4.54457,-4.32816 -5.4102,-0.75742 -0.75743,2.9215 -1.19024,4.65277 -1.94767,7.24966 -2.8133,6.81686 -6.81685,-1.94767 -5.73481,-8.98093 z m 0.54102,-6.70865 c 1.08204,-4.11175 2.59689,-7.79068 4.65277,-10.9286 3.67894,2.92151 1.94767,10.9286 -4.65277,10.9286 z"
           id="path5645" />
      </g>
      <path
         style="opacity:0.466667;fill:#ffffff;fill-opacity:1;stroke:none;stroke-width:0.264583px;stroke-linecap:butt;stroke-linejoin:miter;stroke-opacity:1"
         d="m 211.86761,150.54834 c -15.21065,1.27975 -15.55477,-18.79894 -14.97346,-32.55099 2.81561,22.2787 5.94096,24.46342 14.97346,32.55099 z"
         id="path1842" />
      <path
         style="opacity:0.466667;fill:#ffffff;fill-opacity:1;stroke:none;stroke-width:0.264583px;stroke-linecap:butt;stroke-linejoin:miter;stroke-opacity:1"
         d="m 225.86453,110.67337 c -6.3793,10.97618 -5.78028,31.91508 10.90459,28.80763 -15.01871,-8.73873 -11.69774,-18.58362 -10.90459,-28.80763 z"
         id="path2493" />
      <path
         style="opacity:0.466667;fill:#ffffff;fill-opacity:1;stroke:none;stroke-width:0.264583px;stroke-linecap:butt;stroke-linejoin:miter;stroke-opacity:1"
         d="m 230.78809,149.20539 c 0.29846,11.70617 5.25091,14.35061 13.50866,15.13622 -7.10705,-3.21463 -11.60401,-8.45341 -13.50866,-15.13622 z"
         id="path2661" />
      <path
         style="opacity:0.466667;fill:#ffffff;fill-opacity:1;stroke:none;stroke-width:0.264583px;stroke-linecap:butt;stroke-linejoin:miter;stroke-opacity:1"
         d="m 288.85071,144.36365 c -16.64632,7.11608 -26.42811,-20.22647 -19.20509,-29.45865 0.81406,-1.0405 3.60606,-0.0115 3.74335,1.30204 1.26663,12.11918 1.62757,28.15661 15.46174,28.15661 z"
         id="path2791" />
      <path
         style="opacity:0.466667;fill:#ffffff;fill-opacity:1;stroke:none;stroke-width:0.264583px;stroke-linecap:butt;stroke-linejoin:miter;stroke-opacity:1"
         d="m 323.02924,140.78304 c -12.4618,24.2735 -21.59292,-26.37688 -13.18316,-24.08773 2.3655,0.77157 1.95306,30.76068 13.18316,24.08773 z"
         id="path3514" />
      <path
         style="opacity:0.466667;fill:#ffffff;fill-opacity:1;stroke:none;stroke-width:0.264583px;stroke-linecap:butt;stroke-linejoin:miter;stroke-opacity:1"
         d="m 343.86187,145.34018 c -8.00178,3.57283 -6.84011,-6.73626 -7.81222,-14.15968 1.99742,7.4239 3.89552,13.70584 7.81222,14.15968 z"
         id="path3943" />
      <path
         style="opacity:0.466667;fill:#ffffff;fill-opacity:1;stroke:none;stroke-width:0.264583px;stroke-linecap:butt;stroke-linejoin:miter;stroke-opacity:1"
         d="m 357.85882,115.39326 c -0.66846,10.70133 0.61461,23.39575 5.37089,31.57447 -11.32261,-9.13143 -9.2694,-32.0618 -5.37089,-31.57447 z"
         id="path4035" />
      <path
         style="opacity:0.466667;fill:#ffffff;fill-opacity:1;stroke:none;stroke-width:0.264583px;stroke-linecap:butt;stroke-linejoin:miter;stroke-opacity:1"
         d="m 390.66716,121.74326 c 0.46105,11.05567 1.08599,16.24192 6.42922,25.22447 -9.58258,-5.24896 -9.6471,-23.1254 -6.42922,-25.22447 z"
         id="path4364" />
    </g>
    <path
       id="path862"
       style="fill:#ffb7df;fill-opacity:1;stroke:none;stroke-width:0.999999px;stroke-linecap:butt;stroke-linejoin:miter;stroke-opacity:1"
       d="m 577.39648,383.77734 -1.41601,0.0781 c 0.20806,2.87492 0.36702,5.76633 0.46484,8.67773 -19.5764,49.39964 -174.99033,81.50312 -241.78515,28.7168 -2.72997,-7.17003 -4.48419,-15.2421 -5.31836,-23.89258 l -2.4668,0.13477 c -52.29012,58.32079 175.372,120.21913 263.9043,7.44336 1.20559,-14.9895 1.24509,-19.48055 -13.38282,-21.15821 z"
       transform="scale(0.26458333)" />
  </g>
</svg>
